<svg xmlns="http://www.w3.org/2000/svg" xmlns:xlink="http://www.w3.org/1999/xlink" width="320" zoomAndPan="magnify" viewBox="0 0 240 149.999998" height="200" preserveAspectRatio="xMidYMid meet" version="1.0"><defs><clipPath id="dbc9551698"><path d="M 69.105469 63 L 103 63 L 103 130 L 69.105469 130 Z M 69.105469 63 " clip-rule="nonzero"/></clipPath><clipPath id="4f44190392"><path d="M 69.105469 1.765625 L 174.101562 1.765625 L 174.101562 149.957031 L 69.105469 149.957031 Z M 69.105469 1.765625 " clip-rule="nonzero"/></clipPath></defs><path fill="#f4f4f4" d="M 112.460938 61.195312 L 109.90625 62.398438 L 104.988281 69.707031 C 104.988281 69.707031 102.722656 78.171875 102.757812 78.527344 C 102.792969 78.882812 99.765625 88.167969 99.765625 88.167969 L 100.210938 99.46875 L 103.671875 102.421875 L 108.347656 101.835938 L 108.089844 100.109375 L 108.832031 97.394531 L 110.167969 95.132812 C 110.167969 95.132812 112.085938 93.964844 112.167969 94.003906 C 112.253906 94.042969 114.882812 93.789062 114.894531 93.820312 C 114.902344 93.855469 117.042969 95.058594 117.042969 95.058594 L 114.566406 97.214844 L 114.621094 99.265625 L 115.316406 100.292969 C 115.316406 100.292969 116.640625 100.832031 116.621094 100.753906 C 116.605469 100.679688 118.277344 99.9375 118.277344 99.9375 L 119.632812 98.402344 L 120.644531 96.449219 L 121.359375 97.457031 L 121.742188 99.46875 L 121.742188 101.285156 L 121.226562 102.929688 L 127.070312 102.191406 L 131.363281 101.246094 L 132.875 100.488281 L 134.085938 99.90625 L 137.039062 99.160156 L 137.796875 95.558594 L 143.101562 76.566406 L 147.824219 67.320312 L 148.644531 63.90625 L 145.191406 63.074219 L 142.523438 60.683594 L 137.605469 60.875 L 121.347656 61.195312 L 112.460938 61.195312 " fill-opacity="1" fill-rule="nonzero"/><g clip-path="url(#dbc9551698)"><path fill="#f4f4f4" d="M 100.835938 63.167969 L 95.980469 64.664062 L 90.117188 67.320312 L 85.765625 71.109375 L 82.171875 77.363281 L 78.765625 84.378906 L 73.515625 97.457031 L 70.816406 105.984375 L 69.761719 114.035156 L 69.761719 121.351562 L 71.210938 126.6875 L 72.875 129.707031 L 76.339844 126.324219 L 82.011719 122.570312 L 86.890625 119.09375 L 89.722656 117.933594 L 89.386719 113.8125 L 91.023438 108.746094 L 92.589844 106.269531 L 95.386719 101.046875 L 98.441406 90.253906 C 98.441406 90.253906 101.089844 66.941406 101.277344 66.941406 C 101.46875 66.941406 102.796875 65.515625 102.796875 65.515625 L 102.796875 63.167969 L 100.835938 63.167969 " fill-opacity="1" fill-rule="nonzero"/></g><path fill="#f4f4f4" d="M 145.671875 125.578125 L 146.125 127.378906 L 145.671875 129.484375 L 145.722656 131.988281 L 145.671875 134.636719 L 144.640625 138.789062 L 144.039062 142.566406 L 146.820312 142.566406 L 153.5 142.945312 L 160.445312 142.1875 L 166.097656 140.503906 L 169.386719 138.167969 L 171.285156 134.605469 L 172.722656 126.527344 L 173.363281 112.238281 L 172.722656 100.441406 L 171.472656 91.011719 L 169.960938 82.101562 L 167.6875 76.796875 L 163.714844 71.109375 L 159.554688 68.078125 L 156.167969 66.210938 L 153.5 65.421875 L 148.957031 68.265625 L 144.875 76.375 L 142 87.933594 L 141.277344 93.652344 L 145.285156 104.410156 L 146.046875 108.515625 L 148.902344 113.8125 L 151.402344 116.328125 L 152.742188 112.050781 L 154.445312 106.742188 L 155.011719 110.34375 L 155.296875 115.074219 L 154.828125 118.175781 L 153.585938 120.886719 L 152.335938 122.730469 L 150.246094 124.238281 L 147.792969 124.9375 L 145.671875 125.578125 " fill-opacity="1" fill-rule="nonzero"/><path fill="#facfb5" d="M 143.847656 28.273438 L 142.148438 29.410156 L 139.875 29.789062 L 137.605469 29.410156 L 132.414062 27.441406 L 125.875 26.757812 L 118.875 27.515625 L 112.960938 28.273438 L 111.492188 28.804688 L 110.960938 32.0625 L 109.132812 31.621094 L 107.710938 32.386719 L 106.957031 34.148438 L 106.957031 37.464844 L 108.28125 40.214844 L 109.792969 41.351562 L 111.589844 42.273438 L 112.960938 47.050781 L 115.46875 51.019531 L 117.058594 53.496094 L 116.605469 55.945312 L 115.660156 58.03125 L 113.3125 60.242188 L 113.160156 62.398438 C 113.160156 62.398438 114.335938 71.300781 124.929688 72.058594 C 124.929688 72.058594 138.171875 73.382812 142.335938 60.496094 L 140.699219 56.898438 L 140.066406 53.101562 L 139.6875 50.070312 L 140.832031 47.546875 C 140.832031 47.546875 142.339844 43.992188 142.714844 41.535156 L 143.847656 41.671875 L 146.160156 40.804688 L 147.066406 39.457031 L 147.632812 36.234375 L 147.632812 33.921875 L 147.363281 32.0625 L 145.589844 31.621094 L 143.5 32.0625 L 143.847656 28.273438 " fill-opacity="1" fill-rule="nonzero"/><path fill="#ffd247" d="M 101.492188 91.4375 L 99.457031 90.859375 L 92.429688 90.859375 L 91.648438 91.550781 L 91.433594 102.988281 L 92.386719 104.089844 L 100.976562 104.089844 L 101.492188 102.589844 L 101.492188 99.46875 L 101.847656 94.421875 L 101.492188 91.4375 " fill-opacity="1" fill-rule="nonzero"/><path fill="#ffd247" d="M 137.285156 104.855469 L 134.578125 104.65625 L 134.171875 103.398438 L 134.21875 101.390625 L 134.449219 100.441406 L 133.992188 99.765625 L 134.199219 95.371094 L 134.578125 92.339844 L 135.113281 91.4375 C 135.113281 91.4375 138.585938 91.488281 138.855469 91.4375 C 139.121094 91.390625 143.507812 91.9375 143.507812 91.9375 L 144.226562 92.527344 L 144.417969 94.421875 L 143.886719 104.316406 L 141.417969 104.855469 L 139.5 102.574219 L 137.984375 101.246094 L 137.285156 104.855469 " fill-opacity="1" fill-rule="nonzero"/><path fill="#6092bb" d="M 109.90625 62.398438 C 109.90625 62.398438 102.480469 77.847656 100.839844 91.253906 L 93.445312 90.859375 C 93.445312 90.859375 95.980469 72.476562 101.847656 63.074219 L 105.414062 62.398438 L 109.90625 62.398438 " fill-opacity="1" fill-rule="nonzero"/><path fill="#6092bb" d="M 154.828125 65.640625 L 152.003906 69.066406 L 148.226562 76.375 L 145.285156 84.523438 L 143.238281 91.765625 L 136.105469 91.253906 L 136.847656 86.652344 L 139.234375 79.167969 L 142.898438 71.160156 L 145.464844 66.210938 L 146.875 63.90625 C 146.875 63.90625 151.226562 64.664062 151.417969 64.664062 C 151.605469 64.664062 154.828125 65.640625 154.828125 65.640625 " fill-opacity="1" fill-rule="nonzero"/><path fill="#ff8355" d="M 105.371094 128.183594 C 105.371094 128.183594 102.054688 125.96875 95.894531 127.066406 L 94.265625 126.265625 L 92.484375 123.703125 L 91.742188 121.078125 L 91.34375 119.085938 L 90.550781 118.175781 L 89.234375 118.191406 L 86.890625 119.09375 C 86.890625 119.09375 83.496094 121.527344 83.304688 121.714844 C 83.117188 121.90625 76.84375 125.835938 76.84375 125.835938 L 73.65625 128.917969 L 72.4375 130.960938 L 73.84375 133.46875 L 76.890625 135.828125 L 81.414062 138.585938 L 83.820312 140.503906 L 85.765625 143.511719 L 88.035156 147.113281 L 89.867188 148.910156 L 94.011719 149.308594 L 99.199219 147.683594 L 102.757812 145.09375 L 106.441406 141.871094 L 107.003906 140.875 L 105.527344 138.789062 L 103.058594 134.976562 L 103.058594 132.1875 L 103.539062 129.882812 L 104.5625 128.835938 L 105.371094 128.183594 " fill-opacity="1" fill-rule="nonzero"/><path fill="#ff8355" d="M 129.71875 121.492188 C 129.71875 121.492188 130.675781 124.847656 130.355469 125.933594 C 130.355469 125.933594 133.207031 124.964844 133.230469 125.046875 C 133.253906 125.128906 136.890625 125.046875 136.890625 125.046875 L 140.554688 125.046875 L 143.933594 124.9375 C 143.933594 124.9375 145.210938 124.933594 145.285156 124.9375 C 145.363281 124.9375 145.851562 125.933594 145.851562 125.933594 L 145.851562 128.144531 L 145.742188 131.382812 L 145.664062 133.710938 L 144.996094 137.292969 L 143.480469 143.636719 L 141.007812 144.328125 L 136.890625 143.75 L 134.011719 142.945312 L 129.886719 140.875 L 127.285156 140.015625 L 123.792969 139.722656 L 119.425781 139.519531 L 116.285156 138.613281 L 112.171875 135.828125 L 110.738281 134.035156 L 109.71875 130.394531 L 109.066406 124.75 L 110.308594 123.539062 L 110.859375 121.96875 L 111.511719 120.941406 L 112.714844 120.886719 L 113.824219 120.21875 L 114.375 119.414062 L 115.882812 118.6875 L 116.871094 118.6875 L 118.476562 117.871094 L 119.839844 117.503906 L 121.113281 117.871094 L 122.433594 119.09375 L 123.761719 121.96875 L 125.644531 123.050781 L 127.285156 122.90625 L 128.460938 122.226562 L 129.71875 121.492188 " fill-opacity="1" fill-rule="nonzero"/><path fill="#6092bb" d="M 133.964844 103.640625 C 134.011719 103.710938 134.832031 104.675781 134.832031 104.675781 L 136.863281 104.855469 L 136.445312 107.386719 L 133.230469 105.960938 L 133.964844 103.640625 " fill-opacity="1" fill-rule="nonzero"/><path fill="#6092bb" d="M 101.65625 101.625 L 107.699219 102.339844 L 109.066406 104.675781 L 109.796875 106.011719 L 105.890625 114.265625 L 100.824219 126.265625 L 98.503906 126.6875 L 95.566406 126.527344 L 94.46875 123.042969 L 92.933594 114.035156 L 92.589844 104.089844 L 100.679688 104.089844 L 101.492188 103.398438 L 101.65625 101.625 " fill-opacity="1" fill-rule="nonzero"/><path fill="#6092bb" d="M 145.414062 105.515625 L 147.210938 111.398438 L 149.785156 115.074219 L 151.402344 116.664062 L 149.722656 123.945312 L 146.046875 125.550781 L 144.605469 124.75 L 140.179688 125.046875 L 135.453125 124.9375 L 132.570312 125.046875 L 130.359375 126.117188 L 130.234375 123.703125 L 129.492188 121.308594 L 131.394531 119.824219 L 132.101562 118.6875 L 131.945312 117.425781 L 131.355469 116.257812 L 132.875 115.082031 L 136.09375 114.894531 L 138.910156 113.59375 L 140.871094 111.398438 L 142.121094 109.253906 L 142.28125 108.175781 L 144.570312 106.503906 L 145.414062 105.515625 " fill-opacity="1" fill-rule="nonzero"/><path fill="#6092bb" d="M 131.71875 101.046875 L 128.109375 102.015625 L 123.910156 102.71875 L 121.480469 102.71875 L 120.003906 104.855469 L 117.128906 107.382812 L 115.71875 108.144531 L 113.324219 113.027344 L 110.308594 121.078125 L 112.074219 120.914062 L 113.578125 120.769531 L 114.214844 119.464844 C 114.214844 119.464844 114.964844 118.613281 115.21875 118.554688 C 115.46875 118.496094 117.097656 117.03125 117.097656 117.03125 L 119.949219 113.714844 L 121.300781 114.046875 L 122.28125 112.617188 L 124.550781 109.585938 L 122.453125 108.882812 L 122.847656 107.121094 L 123.222656 105.570312 L 125.308594 105.605469 C 125.308594 105.605469 125.605469 103.464844 125.644531 103.398438 C 125.6875 103.332031 129.035156 104.605469 129.035156 104.605469 L 130.984375 102.382812 L 131.652344 101.179688 L 131.71875 101.046875 " fill-opacity="1" fill-rule="nonzero"/><path fill="#b5b9db" d="M 120.675781 96.335938 C 120.675781 96.335938 118.742188 101.035156 116.726562 100.953125 C 116.726562 100.953125 113.753906 100.410156 114.234375 98.363281 C 114.234375 98.363281 115.480469 95.46875 116.988281 95.230469 C 116.988281 95.230469 113.28125 91.925781 110.308594 94.878906 C 110.308594 94.878906 105.445312 99.65625 109.699219 105.664062 L 108.558594 108.625 L 100.835938 125.9375 L 103.246094 127.066406 L 105.84375 127.929688 L 108.363281 125.984375 L 109.308594 123.175781 L 110.53125 119.695312 L 115.71875 108.144531 L 118.117188 106.742188 L 120.78125 104.089844 L 121.902344 101.246094 L 121.710938 98.78125 L 121.335938 96.699219 L 120.78125 96.1875 L 120.675781 96.335938 " fill-opacity="1" fill-rule="nonzero"/><path fill="#ff707b" d="M 115.433594 118.175781 C 115.660156 118.113281 120.175781 113.8125 120.175781 113.8125 L 123.597656 114.507812 L 125.925781 116.800781 L 126.273438 119.140625 L 123.90625 122.050781 L 121.847656 118.550781 L 120.175781 117.496094 L 117.597656 118.03125 L 116.414062 118.875 L 115.484375 118.6875 L 115.433594 118.175781 " fill-opacity="1" fill-rule="nonzero"/><path fill="#ff707b" d="M 108.957031 125.378906 L 103.058594 131.09375 L 103.058594 134.4375 C 103.058594 134.4375 104.363281 137.015625 104.335938 136.949219 C 104.304688 136.878906 106.164062 139.578125 106.164062 139.578125 L 106.710938 141.390625 L 107.664062 140.875 L 110.308594 137.992188 L 111.882812 135.828125 L 110.738281 134.035156 L 109.664062 129.910156 L 108.957031 125.378906 " fill-opacity="1" fill-rule="nonzero"/><path fill="#b5b9db" d="M 121.523438 113.566406 L 123.78125 110.792969 L 125.09375 108.378906 L 125.523438 105.082031 L 125.589844 103.699219 L 130.910156 105.515625 L 136.484375 107.128906 L 137.101562 105.082031 L 138.046875 101.5 L 139.5 102.574219 L 141.851562 106.097656 L 142.054688 108.339844 L 140.949219 111.261719 L 138.628906 113.8125 L 135.921875 114.902344 L 133.167969 115.121094 L 131.152344 115.121094 L 129.140625 115.816406 L 126.398438 117.75 L 124.742188 115.273438 L 122.46875 114.324219 L 121.261719 113.8125 L 121.523438 113.566406 " fill-opacity="1" fill-rule="nonzero"/><path fill="#9fa4c1" d="M 129.140625 104.214844 L 133.449219 100.046875 L 134.445312 100.292969 L 133.035156 106.363281 L 129.597656 104.855469 L 129.09375 104.089844 L 129.140625 104.214844 " fill-opacity="1" fill-rule="nonzero"/><path fill="#9fa4c1" d="M 124.34375 109.339844 L 122.535156 108.515625 L 123.222656 105.570312 L 125.496094 105.570312 L 124.925781 108.84375 L 124.34375 109.339844 " fill-opacity="1" fill-rule="nonzero"/><path fill="#4f768c" d="M 130.984375 108.828125 C 130.984375 109.875 130.136719 110.722656 129.09375 110.722656 C 128.046875 110.722656 127.199219 109.875 127.199219 108.828125 C 127.199219 107.78125 128.046875 106.933594 129.09375 106.933594 C 130.136719 106.933594 130.984375 107.78125 130.984375 108.828125 " fill-opacity="1" fill-rule="nonzero"/><path fill="#b2b7c3" d="M 142.175781 107.972656 L 146.046875 105.515625 L 149.15625 104.316406 L 150.246094 101.914062 L 149.15625 100.046875 L 146.585938 101.207031 L 145.019531 103.375 L 142 105.992188 L 142.175781 107.972656 " fill-opacity="1" fill-rule="nonzero"/><path fill="#b0744f" d="M 130.003906 115.445312 L 131.394531 116.800781 L 132.101562 118.03125 L 131.511719 119.636719 L 128.578125 122.050781 L 126.628906 123.285156 L 124.492188 122.570312 L 124.015625 121.667969 L 125.644531 120.023438 L 126.273438 118.941406 L 126.421875 117.503906 L 128.230469 116.328125 L 129.324219 115.753906 L 130.003906 115.445312 " fill-opacity="1" fill-rule="nonzero"/><path fill="#6092bb" d="M 145.589844 25.449219 C 145.589844 25.449219 143.472656 31.496094 137.605469 29.410156 L 134.261719 28.144531 L 129.367188 26.757812 L 122.078125 27.167969 L 116.5625 27.8125 L 112.121094 28.578125 L 110.4375 29.277344 C 110.4375 29.277344 105.265625 28.261719 109.894531 22.390625 C 109.894531 22.390625 106.578125 10.515625 116.226562 5.558594 L 122.425781 4.28125 L 128.765625 4.28125 L 134.6875 5.019531 L 139.179688 6.550781 L 143.472656 9.320312 L 146.160156 13.164062 L 147.289062 16.164062 L 147.289062 19.710938 L 146.949219 22.917969 L 145.589844 25.449219 " fill-opacity="1" fill-rule="nonzero"/><path fill="#ffd247" d="M 125.496094 4.011719 C 125.496094 4.011719 128.714844 0.03125 131.929688 4.390625 L 129.78125 4.410156 L 125.496094 4.011719 " fill-opacity="1" fill-rule="nonzero"/><path fill="#330b24" d="M 130.394531 109.71875 C 130.367188 109.761719 130.335938 109.800781 130.304688 109.84375 C 130.304688 109.847656 130.300781 109.847656 130.296875 109.851562 C 129.578125 110.648438 128.257812 110.527344 127.785156 109.523438 C 127.316406 108.523438 128.085938 107.34375 129.191406 107.382812 C 130.351562 107.421875 131.027344 108.746094 130.394531 109.71875 Z M 131.117188 110.445312 C 131.191406 110.355469 131.257812 110.253906 131.3125 110.15625 C 131.8125 109.289062 131.757812 108.160156 131.148438 107.359375 C 130.578125 106.605469 129.585938 106.21875 128.65625 106.410156 C 127.761719 106.597656 127.003906 107.273438 126.734375 108.144531 C 126.449219 109.070312 126.753906 110.113281 127.46875 110.761719 C 128.261719 111.472656 129.40625 111.59375 130.34375 111.09375 C 130.578125 110.96875 130.960938 110.734375 131.117188 110.445312 " fill-opacity="1" fill-rule="nonzero"/><g clip-path="url(#4f44190392)"><path fill="#330b24" d="M 172.046875 128.226562 C 171.828125 129.636719 171.5625 131.039062 171.234375 132.429688 C 170.898438 133.855469 170.574219 135.320312 169.8125 136.589844 C 168.644531 138.542969 166.71875 139.660156 164.667969 140.464844 C 159.886719 142.347656 154.585938 142.664062 149.503906 142.410156 C 147.871094 142.332031 146.238281 142.179688 144.613281 141.980469 C 144.636719 141.851562 144.660156 141.726562 144.6875 141.601562 C 144.871094 140.742188 145.054688 139.886719 145.234375 139.027344 C 145.421875 138.152344 145.605469 137.28125 145.792969 136.40625 C 145.976562 135.546875 146.152344 134.683594 146.226562 133.808594 C 146.300781 132.941406 146.179688 132.089844 146.164062 131.222656 C 146.152344 130.488281 146.273438 129.765625 146.382812 129.042969 C 146.496094 128.289062 146.613281 127.519531 146.539062 126.757812 C 146.519531 126.558594 146.484375 126.347656 146.4375 126.140625 C 148.996094 125.714844 151.5 124.664062 153.230469 122.671875 C 153.410156 122.46875 153.574219 122.257812 153.730469 122.042969 C 154.992188 121.972656 156.253906 122.152344 157.480469 122.449219 C 158.128906 122.605469 158.777344 122.785156 159.402344 123.023438 C 159.6875 123.132812 160.023438 122.902344 160.101562 122.625 C 160.1875 122.304688 159.992188 122.035156 159.703125 121.925781 C 159.058594 121.679688 158.386719 121.496094 157.71875 121.335938 C 156.914062 121.144531 156.089844 121 155.261719 120.929688 C 157.117188 120.246094 159.128906 119.988281 161.09375 120.144531 C 161.222656 120.152344 161.347656 120.164062 161.476562 120.179688 C 161.546875 120.1875 161.550781 120.1875 161.535156 120.183594 C 161.820312 120.210938 162.097656 120.085938 162.183594 119.78125 C 162.257812 119.511719 162.089844 119.132812 161.785156 119.082031 C 159.953125 118.792969 157.984375 118.992188 156.199219 119.453125 C 155.773438 119.5625 155.355469 119.695312 154.941406 119.84375 C 155.417969 118.675781 155.699219 117.421875 155.84375 116.15625 C 156.109375 113.765625 155.871094 111.332031 155.433594 108.976562 C 155.265625 108.070312 155.058594 107.171875 154.824219 106.28125 C 154.820312 106.238281 154.808594 106.195312 154.792969 106.15625 C 154.511719 105.09375 154.1875 104.046875 153.832031 103.011719 C 153.609375 102.367188 153.371094 101.726562 153.117188 101.09375 C 152.980469 100.746094 152.851562 100.386719 152.683594 100.050781 C 152.675781 100.039062 152.671875 100.023438 152.664062 100.011719 C 152.539062 99.730469 152.132812 99.664062 151.886719 99.808594 C 151.601562 99.976562 151.558594 100.304688 151.683594 100.585938 C 151.707031 100.640625 151.730469 100.691406 151.753906 100.746094 C 151.769531 100.777344 151.78125 100.8125 151.796875 100.84375 C 151.792969 100.832031 151.804688 100.859375 151.824219 100.910156 C 151.828125 100.917969 151.832031 100.929688 151.835938 100.9375 C 151.832031 100.929688 151.832031 100.921875 151.828125 100.917969 C 151.828125 100.917969 151.832031 100.921875 151.832031 100.925781 C 151.851562 100.976562 151.875 101.027344 151.894531 101.078125 C 152.121094 101.632812 152.335938 102.191406 152.539062 102.753906 C 152.964844 103.933594 153.34375 105.136719 153.667969 106.347656 C 153.308594 107.558594 152.96875 108.773438 152.628906 109.988281 C 152.101562 111.890625 151.597656 113.800781 151.113281 115.714844 C 149.683594 114.546875 148.605469 112.976562 147.785156 111.273438 C 147.675781 111.046875 147.574219 110.820312 147.476562 110.59375 C 147.46875 110.574219 147.429688 110.488281 147.425781 110.476562 C 147.410156 110.4375 147.394531 110.398438 147.375 110.355469 C 147.328125 110.242188 147.285156 110.128906 147.238281 110.015625 C 147.078125 109.601562 146.933594 109.183594 146.800781 108.757812 C 146.589844 108.101562 146.414062 107.433594 146.269531 106.761719 C 146.210938 106.480469 146.15625 106.199219 146.113281 105.917969 C 146.367188 105.804688 146.625 105.703125 146.882812 105.597656 C 147.53125 105.328125 148.179688 105.054688 148.832031 104.785156 C 149.046875 104.699219 149.289062 104.625 149.453125 104.449219 C 149.667969 104.226562 149.796875 103.875 149.941406 103.605469 C 150.089844 103.335938 150.234375 103.0625 150.378906 102.792969 C 150.519531 102.53125 150.734375 102.238281 150.796875 101.941406 C 150.847656 101.703125 150.757812 101.515625 150.625 101.328125 C 150.425781 101.050781 150.226562 100.777344 150.03125 100.503906 C 149.886719 100.3125 149.761719 100.058594 149.578125 99.90625 C 149.386719 99.746094 149.152344 99.742188 148.921875 99.804688 C 148.609375 99.890625 148.300781 100.035156 147.996094 100.152344 C 147.675781 100.273438 147.355469 100.398438 147.03125 100.519531 C 146.765625 100.621094 146.441406 100.695312 146.214844 100.871094 C 146 101.039062 145.859375 101.304688 145.699219 101.523438 C 145.335938 102.035156 144.96875 102.546875 144.601562 103.054688 C 144.617188 102.667969 144.632812 102.28125 144.648438 101.898438 C 144.726562 99.972656 144.808594 98.046875 144.886719 96.121094 C 144.917969 95.347656 144.949219 94.570312 144.980469 93.792969 C 145 93.367188 145.066406 92.902344 144.964844 92.480469 C 144.859375 92.039062 144.585938 91.691406 144.222656 91.460938 C 144.902344 88.160156 145.738281 84.882812 146.796875 81.679688 C 147.230469 80.359375 147.703125 79.050781 148.21875 77.757812 C 148.652344 76.675781 149.09375 75.652344 149.617188 74.550781 C 150.40625 72.894531 151.28125 71.273438 152.273438 69.726562 C 152.632812 69.171875 153.003906 68.625 153.394531 68.097656 C 153.476562 67.984375 153.558594 67.875 153.644531 67.761719 C 153.648438 67.757812 153.652344 67.75 153.660156 67.742188 C 153.664062 67.738281 153.671875 67.730469 153.683594 67.714844 C 153.722656 67.660156 153.761719 67.609375 153.804688 67.558594 C 153.941406 67.386719 154.078125 67.214844 154.21875 67.050781 C 154.429688 66.796875 154.65625 66.558594 154.882812 66.324219 C 155.386719 66.523438 155.886719 66.734375 156.378906 66.960938 C 160.1875 68.714844 163.628906 71.324219 166.039062 74.789062 C 167.523438 76.917969 168.597656 79.296875 169.269531 81.800781 C 169.554688 82.847656 169.75 83.914062 169.957031 84.976562 C 170.5625 88.078125 171.054688 91.199219 171.476562 94.324219 C 172.195312 99.621094 172.6875 104.953125 172.878906 110.292969 C 173.097656 116.269531 172.972656 122.308594 172.046875 128.226562 Z M 143.601562 141.253906 C 143.519531 141.652344 143.4375 142.050781 143.347656 142.449219 C 143.285156 142.726562 143.21875 142.992188 143.082031 143.222656 C 142.804688 143.679688 141.917969 143.664062 141.390625 143.703125 C 139.867188 143.820312 138.332031 143.71875 136.84375 143.382812 C 135.375 143.050781 134.007812 142.484375 132.667969 141.816406 C 131.332031 141.152344 130.011719 140.441406 128.597656 139.953125 C 127.171875 139.460938 125.675781 139.300781 124.179688 139.25 C 122.699219 139.203125 121.210938 139.257812 119.734375 139.113281 C 118.289062 138.976562 116.929688 138.570312 115.675781 137.824219 C 115.027344 137.433594 114.414062 136.992188 113.800781 136.550781 C 113.21875 136.136719 112.644531 135.714844 112.152344 135.195312 C 111.179688 134.179688 110.796875 132.824219 110.496094 131.488281 C 110.152344 129.949219 109.796875 128.394531 109.710938 126.816406 C 109.671875 126.054688 109.675781 125.269531 109.828125 124.519531 C 109.835938 124.476562 109.84375 124.433594 109.855469 124.390625 C 110.1875 126.421875 111.082031 128.335938 112.4375 129.90625 C 112.636719 130.140625 113.035156 130.113281 113.238281 129.90625 C 113.46875 129.675781 113.441406 129.335938 113.238281 129.101562 C 111.816406 127.453125 110.964844 125.324219 110.855469 123.152344 C 110.863281 123.132812 110.875 123.121094 110.882812 123.101562 C 111.015625 122.851562 111.113281 122.585938 111.207031 122.320312 C 111.25 122.199219 111.292969 122.082031 111.335938 121.964844 C 111.339844 121.957031 111.34375 121.949219 111.34375 121.945312 C 111.355469 121.917969 111.367188 121.894531 111.378906 121.867188 C 111.40625 121.8125 111.4375 121.753906 111.46875 121.699219 C 111.480469 121.683594 111.53125 121.609375 111.535156 121.601562 C 111.558594 121.578125 111.578125 121.554688 111.601562 121.53125 C 111.613281 121.523438 111.65625 121.492188 111.675781 121.480469 C 111.683594 121.472656 111.691406 121.46875 111.699219 121.464844 C 111.738281 121.449219 111.78125 121.4375 111.820312 121.429688 C 112.011719 121.390625 112.273438 121.429688 112.515625 121.441406 C 112.910156 123.835938 113.84375 126.140625 115.226562 128.132812 C 115.402344 128.386719 115.722656 128.5 116.003906 128.335938 C 116.25 128.191406 116.382812 127.8125 116.207031 127.558594 C 114.875 125.640625 113.996094 123.460938 113.613281 121.160156 C 113.65625 121.125 113.699219 121.089844 113.742188 121.050781 C 113.996094 120.8125 114.101562 120.492188 114.257812 120.191406 C 114.476562 119.761719 114.863281 119.464844 115.308594 119.332031 C 115.566406 119.253906 115.6875 119.238281 115.972656 119.25 C 115.992188 119.25 116.105469 119.261719 116.113281 119.261719 C 116.167969 119.273438 116.21875 119.285156 116.273438 119.296875 C 116.3125 119.308594 116.34375 119.316406 116.371094 119.324219 C 116.480469 121.941406 117.425781 124.457031 119.039062 126.519531 C 119.230469 126.761719 119.644531 126.71875 119.84375 126.519531 C 120.082031 126.28125 120.03125 125.957031 119.84375 125.714844 C 118.363281 123.828125 117.542969 121.445312 117.496094 119.054688 C 117.996094 118.460938 118.820312 118.148438 119.628906 118.171875 C 120.035156 118.183594 120.464844 118.296875 120.835938 118.519531 C 121.039062 118.640625 121.152344 118.734375 121.339844 118.9375 C 121.523438 119.132812 121.65625 119.324219 121.804688 119.570312 C 122.386719 120.539062 122.730469 121.632812 123.484375 122.492188 C 124.230469 123.34375 125.351562 123.757812 126.472656 123.667969 C 127.542969 123.585938 128.589844 123.132812 129.375 122.398438 C 129.859375 123.507812 129.972656 124.757812 129.667969 125.945312 C 129.535156 126.449219 130.0625 126.796875 130.5 126.585938 C 133.066406 125.34375 136.035156 125.652344 138.789062 125.769531 C 140.25 125.835938 141.714844 125.859375 143.164062 125.664062 C 143.535156 125.613281 143.902344 125.546875 144.269531 125.46875 C 144.5 125.414062 144.765625 125.316406 144.9375 125.515625 C 145.324219 125.964844 145.421875 126.640625 145.425781 127.207031 C 145.4375 128.652344 144.96875 130.050781 145.039062 131.503906 C 145.078125 132.324219 145.160156 133.125 145.078125 133.945312 C 145 134.75 144.816406 135.542969 144.648438 136.332031 C 144.300781 137.972656 143.953125 139.613281 143.601562 141.253906 Z M 109.003906 138.6875 C 108.417969 139.351562 107.824219 140.015625 107.230469 140.675781 C 107.078125 139.796875 106.507812 139.019531 105.976562 138.332031 C 105.449219 137.65625 104.882812 137.011719 104.445312 136.273438 C 104.007812 135.535156 103.6875 134.742188 103.527344 133.898438 C 103.34375 132.953125 103.429688 132.023438 103.726562 131.144531 C 105.191406 129.644531 106.65625 128.144531 108.117188 126.644531 C 108.121094 126.644531 108.121094 126.640625 108.125 126.640625 C 108.125 126.640625 108.125 126.636719 108.125 126.636719 C 108.269531 126.488281 108.414062 126.339844 108.5625 126.191406 C 108.5625 126.234375 108.558594 126.277344 108.558594 126.316406 C 108.574219 127.1875 108.679688 128.054688 108.820312 128.914062 C 108.957031 129.746094 109.136719 130.574219 109.316406 131.402344 C 109.472656 132.125 109.636719 132.851562 109.890625 133.554688 C 110.160156 134.308594 110.519531 135.011719 111.027344 135.636719 C 111.128906 135.765625 111.238281 135.886719 111.355469 136.003906 C 110.574219 136.898438 109.792969 137.792969 109.003906 138.6875 Z M 107.257812 140.855469 C 107.257812 140.859375 107.257812 140.863281 107.257812 140.867188 C 107.257812 140.863281 107.257812 140.855469 107.257812 140.851562 C 107.253906 140.851562 107.253906 140.851562 107.253906 140.851562 C 107.257812 140.851562 107.257812 140.855469 107.257812 140.855469 Z M 106.136719 141.117188 C 106.105469 141.453125 105.804688 141.710938 105.570312 141.925781 C 105 142.441406 104.414062 142.945312 103.832031 143.453125 C 103.804688 143.421875 103.769531 143.390625 103.730469 143.367188 C 101.335938 141.722656 99.457031 139.316406 98.449219 136.585938 C 98.339844 136.300781 98.0625 136.105469 97.75 136.191406 C 97.472656 136.265625 97.246094 136.601562 97.351562 136.890625 C 98.445312 139.839844 100.40625 142.394531 102.964844 144.210938 C 102.121094 144.949219 101.269531 145.683594 100.355469 146.335938 C 100.324219 146.304688 100.285156 146.273438 100.242188 146.246094 C 98.9375 145.449219 97.792969 144.417969 96.804688 143.253906 C 95.839844 142.117188 95.007812 140.820312 94.449219 139.433594 C 94.335938 139.148438 94.070312 138.949219 93.75 139.035156 C 93.480469 139.109375 93.238281 139.449219 93.355469 139.734375 C 94.53125 142.664062 96.679688 145.285156 99.332031 147.011719 C 99.238281 147.066406 99.144531 147.125 99.050781 147.175781 C 98.003906 147.769531 96.859375 148.214844 95.683594 148.488281 C 95.660156 148.46875 95.640625 148.449219 95.613281 148.433594 C 93.519531 146.902344 91.882812 144.722656 90.988281 142.289062 C 90.882812 142 90.605469 141.804688 90.289062 141.890625 C 90.011719 141.964844 89.789062 142.300781 89.894531 142.589844 C 90.777344 144.988281 92.257812 147.105469 94.195312 148.746094 C 94.164062 148.75 94.132812 148.753906 94.101562 148.757812 C 93.242188 148.84375 92.347656 148.875 91.5 148.679688 C 90.757812 148.507812 90.085938 148.152344 89.515625 147.648438 C 88.289062 146.570312 87.554688 145.089844 86.800781 143.671875 C 85.996094 142.152344 85.09375 140.722656 83.753906 139.617188 C 82.519531 138.597656 81.113281 137.835938 79.71875 137.0625 C 78.292969 136.273438 76.902344 135.441406 75.691406 134.339844 C 75.058594 133.765625 74.472656 133.140625 73.941406 132.476562 C 73.484375 131.90625 72.921875 131.253906 73.25 130.492188 C 73.390625 130.164062 73.625 129.863281 73.847656 129.585938 C 74.113281 129.253906 74.390625 128.933594 74.679688 128.625 C 75.25 128.015625 75.863281 127.453125 76.503906 126.921875 C 77.792969 125.859375 79.207031 124.953125 80.640625 124.105469 C 82.164062 123.203125 83.753906 122.40625 85.214844 121.40625 C 85.925781 120.917969 86.578125 120.359375 87.25 119.824219 C 87.820312 119.371094 88.449219 118.921875 89.148438 118.714844 C 89.347656 118.65625 89.554688 118.613281 89.765625 118.601562 C 89.792969 118.605469 89.824219 118.605469 89.851562 118.601562 C 89.964844 118.601562 90.074219 118.609375 90.1875 118.632812 C 90.320312 118.664062 90.492188 118.742188 90.5625 118.804688 C 90.558594 118.800781 90.644531 118.882812 90.675781 118.917969 C 90.683594 118.925781 90.691406 118.933594 90.695312 118.9375 C 90.722656 118.976562 90.75 119.019531 90.773438 119.058594 C 91.054688 119.542969 91.070312 120.203125 91.125 120.820312 C 91.277344 122.507812 91.890625 124.078125 92.941406 125.410156 C 93.445312 126.054688 94.074219 126.679688 94.796875 127.074219 C 94.9375 127.148438 95.074219 127.210938 95.21875 127.261719 C 95.277344 127.296875 95.347656 127.320312 95.421875 127.332031 C 96.113281 127.539062 96.847656 127.523438 97.585938 127.488281 C 99.3125 127.40625 101.074219 127.371094 102.777344 127.695312 C 103.296875 127.792969 103.8125 127.925781 104.3125 128.09375 C 103.484375 128.863281 102.914062 129.941406 102.589844 130.996094 C 102.089844 132.613281 102.292969 134.296875 102.953125 135.835938 C 103.296875 136.644531 103.773438 137.367188 104.3125 138.058594 C 104.820312 138.710938 105.378906 139.328125 105.785156 140.054688 C 105.957031 140.363281 106.167969 140.75 106.136719 141.117188 Z M 70.292969 119.304688 C 70.066406 115.269531 70.542969 111.222656 71.355469 107.277344 C 72.210938 103.121094 73.449219 99.046875 74.894531 95.058594 C 76.230469 91.386719 77.75 87.785156 79.410156 84.25 C 80.683594 81.523438 82.042969 78.835938 83.480469 76.191406 C 84.175781 74.914062 84.878906 73.636719 85.632812 72.394531 C 87.511719 69.300781 90.824219 67.1875 94.082031 65.808594 C 95.980469 65.003906 97.96875 64.410156 99.980469 63.964844 C 100.375 63.878906 100.765625 63.796875 101.15625 63.722656 C 101.09375 63.835938 101.03125 63.953125 100.96875 64.070312 C 100.304688 65.332031 99.6875 66.617188 99.101562 67.917969 C 98.226562 69.863281 97.425781 71.835938 96.703125 73.84375 C 95.839844 76.238281 95.089844 78.679688 94.476562 81.152344 C 93.792969 83.925781 93.28125 86.746094 92.984375 89.589844 C 92.964844 89.761719 92.949219 89.9375 92.933594 90.109375 C 92.019531 90.179688 91.335938 90.882812 91.289062 91.832031 C 91.269531 92.292969 91.25 92.75 91.234375 93.207031 C 91.15625 95.089844 91.078125 96.972656 91 98.859375 C 90.949219 100.132812 90.875 101.410156 90.84375 102.6875 C 90.828125 103.296875 91.109375 103.863281 91.613281 104.203125 C 91.722656 104.277344 91.835938 104.332031 91.953125 104.375 C 91.953125 104.847656 91.957031 105.316406 91.964844 105.789062 C 91.488281 106.398438 91.085938 107.082031 90.738281 107.765625 C 90.457031 108.324219 90.210938 108.898438 89.996094 109.480469 C 89.828125 108.835938 89.683594 108.183594 89.570312 107.527344 C 89.53125 107.3125 89.5 107.097656 89.46875 106.878906 C 89.464844 106.859375 89.464844 106.839844 89.460938 106.820312 C 89.453125 106.777344 89.449219 106.734375 89.445312 106.6875 C 89.433594 106.601562 89.425781 106.511719 89.414062 106.421875 C 89.390625 106.15625 89.371094 105.890625 89.363281 105.621094 C 89.359375 105.492188 89.359375 105.359375 89.359375 105.226562 C 89.363281 104.496094 88.226562 104.492188 88.222656 105.226562 C 88.21875 106.570312 88.453125 107.910156 88.757812 109.214844 C 88.941406 109.980469 89.15625 110.742188 89.390625 111.492188 C 89.226562 112.195312 89.109375 112.910156 89.039062 113.628906 C 88.910156 114.9375 88.953125 116.25 89.132812 117.546875 C 88.988281 117.578125 88.847656 117.617188 88.710938 117.664062 C 87.898438 117.933594 87.203125 118.425781 86.535156 118.949219 C 85.871094 119.472656 85.238281 120.023438 84.535156 120.496094 C 83.769531 121.011719 82.964844 121.472656 82.15625 121.925781 C 79.128906 123.632812 76.046875 125.417969 73.6875 128.023438 C 73.394531 128.351562 73.085938 128.691406 72.816406 129.054688 C 71.21875 126.058594 70.484375 122.679688 70.292969 119.304688 Z M 102.589844 63.472656 C 103.210938 63.378906 103.832031 63.292969 104.445312 63.230469 C 105.988281 63.066406 107.519531 62.96875 109.03125 62.625 C 108.960938 62.78125 108.890625 62.9375 108.820312 63.09375 C 108.160156 64.566406 107.53125 66.054688 106.921875 67.550781 C 106.074219 69.648438 105.273438 71.761719 104.53125 73.898438 C 103.652344 76.429688 102.851562 78.984375 102.152344 81.570312 C 101.421875 84.285156 100.804688 87.03125 100.371094 89.808594 C 100.339844 90.003906 100.3125 90.199219 100.285156 90.398438 C 99.511719 90.367188 98.738281 90.332031 97.964844 90.300781 C 96.664062 90.25 95.367188 90.191406 94.066406 90.140625 C 94.316406 87.527344 94.757812 84.933594 95.351562 82.375 C 95.933594 79.867188 96.664062 77.390625 97.507812 74.957031 C 97.882812 73.882812 98.28125 72.8125 98.703125 71.753906 C 99.085938 70.78125 99.417969 69.992188 99.832031 69.050781 C 100.441406 67.671875 101.085938 66.3125 101.777344 64.976562 C 102.039062 64.46875 102.320312 63.972656 102.589844 63.472656 Z M 110.464844 62.222656 C 111.152344 61.996094 111.824219 61.71875 112.46875 61.386719 C 112.496094 63.957031 113.648438 66.449219 115.402344 68.304688 C 117.328125 70.347656 119.976562 71.625 122.691406 72.234375 C 125.519531 72.871094 128.503906 72.839844 131.308594 72.101562 C 134.007812 71.394531 136.488281 70.019531 138.496094 68.082031 C 140.375 66.269531 141.863281 63.988281 142.621094 61.480469 C 142.957031 61.863281 143.324219 62.222656 143.726562 62.546875 C 144.40625 63.101562 145.15625 63.558594 145.953125 63.910156 C 145.777344 64.210938 145.601562 64.515625 145.425781 64.820312 C 144.671875 66.140625 143.957031 67.484375 143.269531 68.839844 C 142.277344 70.789062 141.351562 72.773438 140.492188 74.785156 C 139.464844 77.183594 138.53125 79.617188 137.730469 82.101562 C 136.890625 84.699219 136.191406 87.351562 135.714844 90.042969 C 135.664062 90.316406 135.621094 90.589844 135.578125 90.863281 C 134.625 90.898438 133.90625 91.617188 133.859375 92.59375 C 133.835938 93.050781 133.824219 93.507812 133.804688 93.964844 C 133.726562 95.828125 133.648438 97.691406 133.574219 99.550781 C 133.183594 99.703125 132.824219 100.023438 132.519531 100.265625 C 132.394531 100.363281 132.273438 100.460938 132.152344 100.5625 C 131.203125 100.855469 130.238281 101.097656 129.265625 101.300781 C 127.96875 101.574219 126.675781 101.773438 125.410156 101.917969 C 124.257812 102.050781 123.101562 102.144531 121.941406 102.207031 C 121.949219 102.183594 121.960938 102.15625 121.964844 102.132812 C 122.382812 100.570312 122.273438 98.925781 121.835938 97.382812 C 121.734375 97.019531 121.628906 96.648438 121.480469 96.300781 C 121.371094 96.046875 121.171875 95.859375 120.898438 95.808594 C 120.664062 95.765625 120.421875 95.832031 120.246094 95.992188 C 120.015625 96.207031 119.949219 96.574219 119.832031 96.859375 C 119.492188 97.695312 119.070312 98.511719 118.519531 99.230469 C 118.253906 99.578125 117.949219 99.902344 117.589844 100.152344 C 117.410156 100.277344 117.210938 100.367188 117 100.421875 C 116.875 100.453125 116.75 100.449219 116.625 100.46875 C 116.46875 100.46875 116.3125 100.449219 116.160156 100.414062 C 116.003906 100.367188 115.855469 100.304688 115.710938 100.226562 C 115.367188 100.015625 115.101562 99.726562 114.949219 99.351562 C 114.769531 98.90625 114.824219 98.429688 114.929688 97.972656 C 114.984375 97.804688 115.035156 97.644531 115.109375 97.484375 C 115.144531 97.414062 115.183594 97.34375 115.21875 97.273438 C 115.578125 96.707031 116.054688 96.265625 116.625 95.925781 C 116.820312 95.808594 117.046875 95.730469 117.195312 95.554688 C 117.339844 95.378906 117.371094 95.132812 117.296875 94.921875 C 117.210938 94.6875 117 94.5625 116.800781 94.4375 C 116.507812 94.246094 116.203125 94.074219 115.890625 93.921875 C 115.289062 93.632812 114.652344 93.414062 113.992188 93.316406 C 112.773438 93.136719 111.527344 93.417969 110.527344 94.148438 C 109.589844 94.832031 108.914062 95.8125 108.402344 96.839844 C 107.820312 98.015625 107.570312 99.414062 107.558594 100.71875 C 107.554688 101.066406 107.574219 101.414062 107.617188 101.761719 C 106.59375 101.65625 105.574219 101.542969 104.558594 101.40625 C 104.519531 101.402344 104.480469 101.394531 104.441406 101.390625 C 104.4375 101.390625 104.4375 101.390625 104.4375 101.390625 C 104.433594 101.390625 104.429688 101.390625 104.425781 101.386719 C 104.339844 101.378906 104.253906 101.363281 104.167969 101.355469 C 104.023438 101.332031 103.875 101.3125 103.726562 101.292969 C 103.484375 101.257812 103.246094 101.222656 103.003906 101.183594 C 102.75 101.144531 102.496094 101.101562 102.242188 101.0625 C 102.230469 101.058594 102.222656 101.058594 102.210938 101.058594 C 102.167969 101.050781 102.125 101.046875 102.082031 101.046875 C 102.160156 99.152344 102.238281 97.257812 102.316406 95.363281 C 102.347656 94.589844 102.378906 93.8125 102.410156 93.035156 C 102.429688 92.609375 102.492188 92.140625 102.394531 91.722656 C 102.265625 91.183594 101.882812 90.777344 101.398438 90.570312 C 101.78125 87.996094 102.324219 85.441406 102.972656 82.921875 C 103.644531 80.308594 104.429688 77.726562 105.292969 75.167969 C 106.042969 72.960938 106.851562 70.773438 107.714844 68.609375 C 107.898438 68.148438 108.082031 67.695312 108.269531 67.238281 C 108.355469 67.023438 108.445312 66.8125 108.53125 66.601562 C 108.574219 66.5 108.617188 66.398438 108.660156 66.296875 C 108.664062 66.28125 108.691406 66.222656 108.699219 66.199219 C 108.710938 66.175781 108.738281 66.109375 108.746094 66.089844 C 109.035156 65.410156 109.328125 64.734375 109.625 64.058594 C 109.898438 63.445312 110.183594 62.835938 110.464844 62.222656 Z M 113.613281 60.707031 C 114.128906 60.363281 114.617188 59.972656 115.0625 59.535156 C 116.546875 58.074219 117.523438 56.089844 117.742188 54.011719 C 119.867188 55.527344 122.375 56.390625 124.953125 56.75 C 127.425781 57.097656 129.964844 56.882812 132.328125 56.054688 C 134.628906 55.253906 136.738281 53.929688 138.453125 52.191406 C 138.707031 51.933594 138.949219 51.664062 139.1875 51.390625 C 139.238281 53.417969 139.625 55.492188 140.285156 57.355469 C 140.652344 58.398438 141.136719 59.410156 141.746094 60.335938 C 141.214844 62.664062 140.003906 64.800781 138.394531 66.558594 C 136.660156 68.449219 134.488281 69.882812 132.054688 70.695312 C 129.503906 71.546875 126.734375 71.769531 124.082031 71.347656 C 121.53125 70.941406 118.992188 69.984375 117.015625 68.277344 C 115.105469 66.628906 113.730469 64.253906 113.609375 61.695312 C 113.59375 61.375 113.597656 61.058594 113.617188 60.742188 C 113.617188 60.730469 113.613281 60.71875 113.613281 60.707031 Z M 114.414062 48.695312 C 113.105469 46.417969 112.527344 43.761719 112.113281 41.164062 C 111.714844 38.667969 111.539062 36.132812 111.496094 33.605469 C 111.488281 33.105469 111.484375 32.605469 111.488281 32.105469 C 111.488281 32.085938 111.492188 32.066406 111.488281 32.046875 C 111.492188 31.21875 111.515625 30.390625 111.558594 29.5625 C 112.019531 29.441406 112.480469 29.324219 112.945312 29.210938 C 114.21875 28.902344 115.496094 28.632812 116.785156 28.398438 C 118.355469 28.113281 119.800781 27.902344 121.363281 27.742188 C 123.050781 27.570312 124.75 27.480469 126.445312 27.492188 C 129.707031 27.523438 133.105469 27.9375 136.058594 29.28125 C 136.832031 29.632812 137.558594 30.039062 138.390625 30.226562 C 139.195312 30.410156 140.019531 30.449219 140.835938 30.339844 C 141.71875 30.222656 142.578125 29.925781 143.34375 29.472656 C 143.347656 32.105469 143.207031 34.746094 142.890625 37.363281 C 142.625 39.558594 142.210938 41.808594 141.644531 43.984375 C 141.375 45.011719 141.058594 46.074219 140.640625 47.007812 C 140.164062 48.066406 139.523438 49.140625 138.84375 50.023438 C 137.414062 51.875 135.621094 53.324219 133.523438 54.339844 C 131.46875 55.335938 129.152344 55.832031 126.847656 55.777344 C 125.46875 55.742188 124.179688 55.511719 122.832031 55.152344 C 121.617188 54.828125 120.507812 54.382812 119.421875 53.75 C 117.34375 52.539062 115.613281 50.785156 114.414062 48.695312 Z M 110.90625 28.558594 C 110.902344 28.5625 110.894531 28.5625 110.890625 28.5625 C 110.773438 28.59375 110.660156 28.617188 110.5625 28.621094 C 110.203125 28.640625 109.886719 28.5625 109.585938 28.375 C 109.316406 28.210938 109.113281 27.988281 108.972656 27.667969 C 108.945312 27.605469 108.882812 27.34375 108.871094 27.257812 C 108.851562 27.015625 108.84375 26.777344 108.851562 26.535156 C 108.90625 25.15625 109.445312 23.871094 110.210938 22.738281 C 110.21875 22.726562 110.226562 22.714844 110.234375 22.703125 C 113.722656 21.253906 117.414062 20.234375 121.160156 19.832031 C 122.839844 19.652344 124.527344 19.585938 126.214844 19.636719 C 127.730469 19.683594 129.261719 19.828125 130.6875 20.054688 C 133.265625 20.464844 135.804688 21.15625 138.238281 22.109375 C 138.496094 22.210938 138.753906 22.3125 139.011719 22.421875 C 139.015625 22.421875 139.027344 22.429688 139.039062 22.433594 C 139.0625 22.441406 139.105469 22.460938 139.105469 22.460938 C 139.160156 22.484375 139.214844 22.507812 139.269531 22.53125 C 139.398438 22.585938 139.523438 22.644531 139.652344 22.699219 C 140.105469 22.902344 140.550781 23.117188 140.996094 23.339844 C 141.738281 23.714844 142.472656 24.117188 143.179688 24.554688 C 143.671875 24.855469 144.152344 25.179688 144.617188 25.523438 C 144.625 25.53125 144.632812 25.535156 144.640625 25.542969 C 144.675781 25.574219 144.714844 25.601562 144.75 25.632812 C 144.8125 25.683594 144.875 25.734375 144.9375 25.789062 C 144.9375 25.789062 144.941406 25.792969 144.941406 25.792969 C 144.453125 27.132812 143.539062 28.171875 142.210938 28.789062 C 142.117188 28.832031 142.132812 28.824219 142.070312 28.847656 C 141.984375 28.882812 141.902344 28.914062 141.816406 28.945312 C 141.636719 29.007812 141.449219 29.0625 141.265625 29.109375 C 141.089844 29.152344 140.910156 29.1875 140.730469 29.214844 C 140.722656 29.214844 140.691406 29.21875 140.675781 29.222656 C 140.644531 29.226562 140.609375 29.230469 140.578125 29.234375 C 140.464844 29.246094 140.355469 29.253906 140.242188 29.257812 C 139.460938 29.296875 138.824219 29.210938 138.078125 28.957031 C 137.371094 28.71875 136.648438 28.292969 135.910156 27.992188 C 135.179688 27.691406 134.429688 27.445312 133.664062 27.242188 C 132.046875 26.808594 130.378906 26.570312 128.707031 26.445312 C 125.390625 26.207031 122.054688 26.453125 118.769531 26.929688 C 116.246094 27.292969 113.746094 27.808594 111.28125 28.457031 C 111.15625 28.492188 111.027344 28.527344 110.90625 28.558594 Z M 109.0625 40.398438 C 108.351562 39.738281 107.953125 38.859375 107.742188 37.917969 C 107.511719 36.898438 107.488281 35.816406 107.539062 34.777344 C 107.582031 33.890625 107.796875 32.882812 108.527344 32.34375 C 108.726562 32.195312 108.835938 32.144531 109.0625 32.09375 C 109.203125 32.066406 109.40625 32.054688 109.632812 32.070312 C 109.753906 32.082031 109.730469 32.082031 109.851562 32.105469 C 109.964844 32.132812 110.078125 32.164062 110.1875 32.207031 C 110.195312 32.210938 110.207031 32.21875 110.222656 32.226562 C 110.265625 32.25 110.308594 32.273438 110.351562 32.300781 C 110.34375 34.730469 110.464844 37.164062 110.757812 39.578125 C 110.824219 40.125 110.894531 40.671875 110.976562 41.222656 C 110.265625 41.203125 109.605469 40.898438 109.0625 40.398438 Z M 110.171875 16.816406 C 110.199219 16.429688 110.238281 16.046875 110.289062 15.664062 C 110.289062 15.652344 110.289062 15.648438 110.289062 15.640625 C 110.289062 15.636719 110.289062 15.636719 110.292969 15.632812 C 110.296875 15.585938 110.304688 15.535156 110.3125 15.488281 C 110.328125 15.382812 110.34375 15.28125 110.359375 15.175781 C 110.394531 14.972656 110.429688 14.769531 110.46875 14.566406 C 110.632812 13.746094 110.855469 12.933594 111.148438 12.148438 C 111.183594 12.050781 111.222656 11.953125 111.261719 11.855469 C 111.28125 11.808594 111.300781 11.757812 111.320312 11.710938 C 111.320312 11.707031 111.324219 11.707031 111.324219 11.703125 C 111.332031 11.683594 111.339844 11.664062 111.347656 11.644531 C 111.4375 11.441406 111.527344 11.242188 111.625 11.046875 C 111.820312 10.65625 112.035156 10.273438 112.269531 9.90625 C 112.394531 9.71875 112.519531 9.53125 112.652344 9.351562 C 112.6875 9.308594 112.71875 9.265625 112.75 9.21875 C 112.753906 9.21875 112.753906 9.21875 112.753906 9.214844 C 112.765625 9.203125 112.777344 9.1875 112.789062 9.171875 C 112.859375 9.085938 112.929688 9 113 8.914062 C 113.300781 8.558594 113.625 8.222656 113.96875 7.910156 C 114.140625 7.753906 114.320312 7.605469 114.503906 7.460938 C 114.523438 7.445312 114.542969 7.429688 114.5625 7.414062 C 114.609375 7.378906 114.65625 7.34375 114.707031 7.308594 C 114.808594 7.234375 114.914062 7.160156 115.019531 7.089844 C 115.441406 6.808594 115.882812 6.554688 116.339844 6.332031 C 116.457031 6.277344 116.578125 6.222656 116.695312 6.167969 C 116.710938 6.160156 116.808594 6.121094 116.820312 6.117188 C 116.878906 6.089844 116.9375 6.066406 116.996094 6.042969 C 117.261719 5.9375 117.527344 5.84375 117.800781 5.757812 C 118.371094 5.574219 118.953125 5.429688 119.539062 5.320312 C 119.839844 5.265625 120.210938 5.207031 120.421875 5.179688 C 120.585938 5.160156 120.753906 5.144531 120.921875 5.121094 C 120.871094 5.128906 120.769531 5.140625 120.816406 5.136719 C 120.957031 5.121094 121.097656 5.101562 121.242188 5.085938 C 121.96875 5.007812 122.703125 4.953125 123.433594 4.914062 C 126.085938 4.773438 128.757812 4.84375 131.390625 5.171875 C 132.960938 5.367188 134.570312 5.679688 136.113281 6.117188 C 137.644531 6.546875 139.164062 7.089844 140.546875 7.890625 C 143.011719 9.324219 145.042969 11.582031 146.109375 14.199219 C 147.257812 17.015625 147.355469 20.109375 146.316406 22.972656 C 146.089844 23.59375 145.804688 24.191406 145.472656 24.765625 C 145.089844 24.457031 144.683594 24.171875 144.273438 23.902344 C 142.710938 22.878906 141.03125 22.046875 139.3125 21.324219 C 136.878906 20.304688 134.328125 19.554688 131.726562 19.082031 C 128.449219 18.492188 125.09375 18.332031 121.777344 18.632812 C 117.835938 18.992188 113.972656 19.964844 110.308594 21.453125 C 110.308594 21.449219 110.308594 21.449219 110.308594 21.449219 C 110.308594 21.445312 110.308594 21.445312 110.308594 21.445312 C 110.304688 21.402344 110.296875 21.359375 110.292969 21.316406 C 110.265625 21.097656 110.242188 20.875 110.21875 20.652344 C 110.101562 19.378906 110.082031 18.09375 110.171875 16.816406 Z M 111.324219 11.699219 C 111.335938 11.671875 111.351562 11.632812 111.324219 11.699219 Z M 112.753906 9.214844 C 112.769531 9.195312 112.804688 9.152344 112.753906 9.214844 Z M 127.457031 3.136719 C 127.910156 2.945312 128.472656 2.863281 128.929688 2.917969 C 129.683594 3.011719 130.351562 3.402344 130.828125 3.96875 C 129.417969 3.8125 127.996094 3.734375 126.578125 3.714844 C 126.832031 3.472656 127.132812 3.277344 127.457031 3.136719 Z M 144.460938 32.398438 C 144.632812 32.207031 144.945312 32.09375 145.222656 32.066406 C 145.316406 32.058594 145.410156 32.054688 145.503906 32.054688 C 145.554688 32.054688 145.605469 32.058594 145.65625 32.0625 C 145.671875 32.0625 145.726562 32.066406 145.742188 32.066406 C 145.820312 32.078125 145.894531 32.097656 145.972656 32.117188 C 146.015625 32.128906 146.058594 32.144531 146.101562 32.160156 C 146.117188 32.164062 146.128906 32.167969 146.132812 32.167969 C 146.140625 32.171875 146.15625 32.183594 146.175781 32.195312 C 146.9375 32.667969 147.253906 33.488281 147.316406 34.382812 C 147.390625 35.425781 147.316406 36.535156 147.101562 37.558594 C 146.910156 38.472656 146.570312 39.390625 145.917969 40.078125 C 145.28125 40.757812 144.347656 41.253906 143.449219 41.140625 C 143.550781 40.59375 143.644531 40.042969 143.730469 39.492188 C 144.097656 37.15625 144.320312 34.800781 144.417969 32.433594 C 144.433594 32.421875 144.449219 32.410156 144.460938 32.398438 Z M 143.882812 92.960938 C 143.882812 92.972656 143.878906 92.984375 143.878906 92.996094 C 143.878906 93.046875 143.875 93.101562 143.871094 93.15625 C 143.851562 93.703125 143.828125 94.25 143.804688 94.796875 C 143.730469 96.644531 143.652344 98.496094 143.578125 100.34375 C 143.527344 101.519531 143.496094 102.699219 143.433594 103.871094 C 143.414062 104.195312 143.140625 104.4375 142.792969 104.433594 C 142.394531 104.417969 141.996094 104.398438 141.597656 104.382812 C 141.269531 103.816406 140.871094 103.289062 140.441406 102.796875 C 139.835938 102.105469 139.144531 101.40625 138.363281 100.917969 C 138.117188 100.765625 137.792969 100.773438 137.621094 101.03125 C 137.503906 101.207031 137.476562 101.457031 137.421875 101.660156 C 137.351562 101.933594 137.28125 102.203125 137.207031 102.476562 C 137.058594 103.046875 136.90625 103.613281 136.757812 104.183594 C 136.566406 104.175781 136.375 104.167969 136.183594 104.160156 L 135.351562 104.125 C 135.28125 104.121094 135.210938 104.121094 135.140625 104.117188 C 135.035156 104.109375 135.035156 104.113281 134.925781 104.078125 C 134.675781 103.992188 134.539062 103.738281 134.546875 103.433594 C 134.554688 103.289062 134.5625 103.144531 134.566406 103 C 134.574219 102.78125 134.585938 102.558594 134.59375 102.335938 C 134.699219 101.925781 134.804688 101.519531 134.898438 101.105469 C 135.003906 100.65625 135 100.117188 134.699219 99.777344 C 134.757812 98.320312 134.820312 96.867188 134.878906 95.410156 C 134.910156 94.695312 134.9375 93.980469 134.96875 93.265625 L 134.992188 92.675781 C 134.992188 92.636719 134.996094 92.597656 134.996094 92.558594 C 134.996094 92.550781 134.996094 92.546875 134.996094 92.539062 C 135.003906 92.460938 134.996094 92.5 135.023438 92.402344 C 135.03125 92.382812 135.03125 92.375 135.03125 92.371094 C 135.035156 92.371094 135.035156 92.367188 135.035156 92.363281 C 135.054688 92.320312 135.085938 92.269531 135.113281 92.230469 C 135.21875 92.082031 135.414062 91.992188 135.636719 91.996094 C 135.667969 91.996094 135.699219 91.996094 135.730469 92 C 135.945312 92.007812 136.164062 92.015625 136.378906 92.027344 C 137.210938 92.058594 138.042969 92.09375 138.875 92.128906 C 140.347656 92.191406 141.820312 92.238281 143.292969 92.3125 C 143.390625 92.316406 143.414062 92.316406 143.492188 92.34375 C 143.507812 92.347656 143.605469 92.398438 143.648438 92.429688 C 143.621094 92.410156 143.734375 92.507812 143.761719 92.542969 C 143.734375 92.507812 143.816406 92.632812 143.835938 92.675781 C 143.839844 92.679688 143.839844 92.683594 143.84375 92.691406 C 143.859375 92.738281 143.875 92.785156 143.882812 92.835938 C 143.878906 92.832031 143.882812 92.9375 143.882812 92.960938 Z M 145.34375 105.390625 C 144.929688 105.605469 144.566406 105.894531 144.191406 106.164062 C 143.644531 106.5625 143.097656 106.957031 142.550781 107.351562 C 142.519531 106.929688 142.445312 106.511719 142.328125 106.101562 L 142.984375 105.625 C 143.484375 105.265625 144.03125 104.929688 144.476562 104.496094 C 144.902344 104.078125 145.226562 103.550781 145.574219 103.066406 C 145.945312 102.550781 146.292969 101.988281 146.703125 101.496094 C 147.078125 101.320312 147.496094 101.199219 147.878906 101.050781 C 148.257812 100.90625 148.636719 100.757812 149.015625 100.613281 C 149.152344 100.78125 149.316406 101.046875 149.449219 101.230469 C 149.605469 101.449219 149.804688 101.667969 149.941406 101.90625 C 149.863281 102.082031 149.75 102.25 149.660156 102.417969 C 149.554688 102.613281 149.449219 102.808594 149.34375 103.003906 C 149.183594 103.300781 148.992188 103.597656 148.851562 103.90625 C 148.746094 103.945312 148.644531 104.003906 148.550781 104.042969 C 148.324219 104.136719 148.097656 104.230469 147.875 104.324219 C 147.421875 104.511719 146.972656 104.699219 146.519531 104.886719 C 146.125 105.046875 145.722656 105.195312 145.34375 105.390625 Z M 128.117188 120.675781 C 128.335938 120.515625 128.558594 120.355469 128.78125 120.195312 C 129.636719 119.574219 130.492188 118.953125 131.351562 118.335938 C 131.402344 118.296875 131.457031 118.257812 131.511719 118.21875 C 131.515625 118.601562 131.378906 118.992188 131.164062 119.300781 C 130.808594 119.8125 130.242188 120.140625 129.746094 120.496094 C 129.308594 120.8125 128.867188 121.132812 128.429688 121.449219 L 127.957031 120.796875 C 128.011719 120.753906 128.066406 120.714844 128.117188 120.675781 Z M 127.492188 120.148438 L 127.054688 119.546875 C 128.3125 118.636719 129.570312 117.726562 130.828125 116.816406 L 130.878906 116.882812 C 131.003906 117.058594 131.148438 117.230469 131.269531 117.417969 C 130.519531 117.960938 129.773438 118.5 129.023438 119.042969 C 128.609375 119.34375 128.191406 119.644531 127.777344 119.945312 C 127.683594 120.015625 127.585938 120.082031 127.492188 120.148438 Z M 125.519531 121.023438 C 125.722656 120.78125 125.925781 120.542969 126.128906 120.300781 C 126.195312 120.222656 126.261719 120.148438 126.332031 120.070312 C 126.507812 120.3125 126.679688 120.554688 126.855469 120.796875 C 127.089844 121.121094 127.328125 121.445312 127.558594 121.773438 C 127.597656 121.832031 127.644531 121.910156 127.691406 121.984375 L 127.113281 122.402344 C 126.867188 122.476562 126.621094 122.523438 126.410156 122.539062 C 125.738281 122.578125 125.148438 122.40625 124.660156 122.035156 C 124.949219 121.695312 125.234375 121.359375 125.519531 121.023438 Z M 119.828125 114.640625 C 119.914062 114.554688 120.003906 114.421875 120.105469 114.355469 C 120.128906 114.339844 120.160156 114.328125 120.191406 114.324219 C 122.613281 114.59375 125.734375 115.734375 125.753906 118.621094 C 125.753906 118.769531 125.757812 118.921875 125.734375 119.066406 C 125.707031 119.265625 125.578125 119.378906 125.457031 119.527344 C 125.214844 119.8125 124.976562 120.09375 124.734375 120.378906 C 124.484375 120.675781 124.234375 120.972656 123.984375 121.269531 C 123.386719 120.335938 123.050781 119.261719 122.359375 118.386719 C 121.671875 117.515625 120.640625 117.039062 119.539062 117.035156 C 118.460938 117.027344 117.417969 117.460938 116.699219 118.246094 C 116.597656 118.214844 116.492188 118.191406 116.382812 118.171875 C 117.535156 116.996094 118.679688 115.816406 119.828125 114.640625 Z M 133.882812 101.023438 C 133.828125 101.21875 133.769531 101.410156 133.722656 101.605469 C 133.609375 102.058594 133.496094 102.511719 133.382812 102.960938 C 133.171875 103.804688 132.960938 104.648438 132.75 105.488281 C 132.15625 105.277344 131.5625 105.070312 130.964844 104.859375 C 130.5625 104.71875 130.160156 104.574219 129.757812 104.433594 C 130.296875 103.765625 130.871094 103.125 131.480469 102.527344 C 131.851562 102.164062 132.234375 101.816406 132.628906 101.480469 C 133.023438 101.148438 133.414062 100.78125 133.867188 100.53125 C 133.898438 100.515625 133.929688 100.507812 133.957031 100.496094 C 133.996094 100.65625 133.917969 100.882812 133.882812 101.023438 Z M 136.398438 105.554688 C 136.296875 105.929688 136.199219 106.300781 136.101562 106.671875 C 135.304688 106.390625 134.511719 106.109375 133.714844 105.828125 C 133.730469 105.757812 133.746094 105.6875 133.761719 105.621094 C 133.816406 105.398438 133.875 105.171875 133.929688 104.945312 C 133.945312 104.894531 133.957031 104.839844 133.96875 104.789062 C 134.035156 104.851562 134.105469 104.910156 134.183594 104.960938 C 134.5 105.175781 134.859375 105.242188 135.230469 105.257812 L 136.460938 105.308594 C 136.441406 105.390625 136.417969 105.472656 136.398438 105.554688 Z M 124.015625 108.765625 C 123.84375 108.714844 123.675781 108.660156 123.503906 108.601562 C 123.382812 108.558594 123.113281 108.511719 123.023438 108.414062 C 122.925781 108.3125 123.097656 107.921875 123.132812 107.773438 C 123.214844 107.40625 123.296875 107.042969 123.378906 106.675781 C 123.414062 106.507812 123.449219 106.339844 123.492188 106.175781 C 123.503906 106.125 123.511719 106.042969 123.542969 106.003906 C 123.609375 105.921875 123.742188 105.960938 123.828125 105.972656 C 124.175781 106.019531 124.523438 106.089844 124.871094 106.148438 C 124.777344 106.746094 124.644531 107.335938 124.46875 107.921875 C 124.375 108.222656 124.265625 108.515625 124.148438 108.804688 C 124.105469 108.792969 124.058594 108.777344 124.015625 108.765625 Z M 130.367188 116.175781 L 129.585938 116.738281 C 128.679688 117.398438 127.773438 118.054688 126.863281 118.710938 C 126.839844 118.726562 126.808594 118.75 126.777344 118.769531 C 126.777344 118.613281 126.765625 118.460938 126.757812 118.320312 C 126.753906 118.300781 126.753906 118.28125 126.75 118.257812 C 126.835938 118.160156 126.917969 118.054688 127.003906 117.964844 C 127.152344 117.808594 127.308594 117.660156 127.46875 117.519531 C 127.796875 117.285156 128.125 117.046875 128.453125 116.808594 C 128.46875 116.800781 128.480469 116.792969 128.496094 116.78125 C 129.046875 116.453125 129.632812 116.199219 130.242188 116.003906 L 130.292969 116.070312 Z M 127.925781 115.9375 C 127.433594 116.238281 126.917969 116.601562 126.476562 117.023438 C 126.316406 116.589844 126.085938 116.183594 125.789062 115.816406 C 124.882812 114.699219 123.511719 114.03125 122.117188 113.65625 C 124.078125 111.671875 125.421875 109.152344 125.875 106.371094 C 125.992188 105.65625 126.054688 104.925781 126.046875 104.195312 C 128.195312 104.953125 130.34375 105.714844 132.492188 106.472656 C 133.097656 106.683594 133.699219 106.898438 134.300781 107.109375 C 134.597656 107.214844 134.894531 107.320312 135.191406 107.425781 C 135.464844 107.523438 135.75 107.660156 136.039062 107.707031 C 136.429688 107.769531 136.828125 107.589844 136.992188 107.21875 C 137.097656 106.988281 137.140625 106.714844 137.203125 106.46875 C 137.285156 106.160156 137.367188 105.847656 137.449219 105.535156 C 137.746094 104.414062 138.042969 103.289062 138.335938 102.164062 C 138.789062 102.535156 139.203125 102.949219 139.605469 103.375 C 140.117188 103.949219 140.589844 104.585938 140.933594 105.28125 C 141.167969 105.757812 141.347656 106.257812 141.464844 106.777344 C 141.535156 107.203125 141.582031 107.617188 141.570312 108.050781 C 141.539062 108.234375 141.542969 108.425781 141.511719 108.613281 C 141.472656 108.871094 141.402344 109.125 141.332031 109.378906 C 141.136719 109.933594 140.898438 110.449219 140.585938 110.949219 C 139.546875 112.53125 138.078125 113.785156 136.230469 114.285156 C 135.769531 114.410156 135.292969 114.488281 134.816406 114.515625 C 134.332031 114.546875 133.84375 114.511719 133.355469 114.519531 C 132.351562 114.535156 131.34375 114.648438 130.375 114.90625 C 129.515625 115.132812 128.6875 115.476562 127.925781 115.9375 Z M 112.871094 115.675781 C 113.523438 114.121094 114.171875 112.570312 114.824219 111.015625 C 115.148438 110.242188 115.472656 109.46875 115.800781 108.695312 C 115.835938 108.609375 115.890625 108.507812 115.933594 108.40625 C 117.316406 107.859375 118.621094 106.980469 119.675781 105.941406 C 120.433594 105.195312 121.070312 104.328125 121.511719 103.363281 C 122.511719 103.316406 123.511719 103.25 124.507812 103.152344 C 126.472656 102.960938 128.4375 102.671875 130.359375 102.21875 C 129.789062 102.808594 129.25 103.425781 128.75 104.074219 C 128.589844 104.019531 128.433594 103.964844 128.273438 103.90625 C 127.828125 103.75 127.378906 103.589844 126.929688 103.433594 C 126.714844 103.355469 126.5 103.28125 126.28125 103.203125 C 126.101562 103.140625 125.917969 103.050781 125.726562 103.042969 C 125.429688 103.035156 125.144531 103.214844 125.054688 103.5 C 124.984375 103.710938 125.03125 103.949219 125.035156 104.164062 C 125.039062 104.375 125.035156 104.585938 125.023438 104.796875 C 125.015625 104.910156 125.007812 105.027344 124.996094 105.140625 C 124.777344 105.101562 124.554688 105.0625 124.335938 105.03125 C 124.015625 104.980469 123.675781 104.902344 123.355469 104.964844 C 122.722656 105.085938 122.558594 105.707031 122.429688 106.253906 C 122.347656 106.601562 122.273438 106.949219 122.199219 107.300781 C 122.136719 107.585938 122.050781 107.871094 122.011719 108.160156 C 121.933594 108.726562 122.160156 109.15625 122.691406 109.382812 C 122.996094 109.511719 123.320312 109.613281 123.636719 109.707031 C 123.664062 109.71875 123.695312 109.726562 123.726562 109.738281 C 123.351562 110.488281 122.902344 111.203125 122.375 111.863281 C 122.144531 112.152344 121.902344 112.429688 121.644531 112.699219 C 121.417969 112.941406 121.152344 113.15625 120.921875 113.398438 C 120.695312 113.351562 120.410156 113.28125 120.160156 113.308594 C 120.117188 113.304688 120.074219 113.304688 120.027344 113.308594 C 119.636719 113.355469 119.328125 113.667969 119.074219 113.945312 C 118.707031 114.339844 118.332031 114.722656 117.957031 115.109375 L 114.859375 118.285156 C 114.382812 118.445312 113.945312 118.726562 113.617188 119.121094 C 113.394531 119.382812 113.261719 119.660156 113.113281 119.964844 C 113.074219 120.046875 113.035156 120.140625 112.980469 120.207031 L 112.953125 120.234375 C 112.941406 120.25 112.929688 120.261719 112.914062 120.269531 C 112.90625 120.277344 112.855469 120.289062 112.835938 120.292969 C 112.796875 120.304688 112.726562 120.308594 112.644531 120.308594 C 112.273438 120.308594 111.921875 120.253906 111.554688 120.324219 C 111.242188 120.382812 110.941406 120.5625 110.730469 120.796875 C 110.726562 120.804688 110.722656 120.808594 110.71875 120.8125 C 111.4375 119.101562 112.152344 117.386719 112.871094 115.675781 Z M 101.476562 125.726562 C 101.636719 125.371094 101.792969 125.011719 101.953125 124.65625 C 102.285156 123.902344 102.621094 123.148438 102.953125 122.394531 C 104.3125 119.328125 105.671875 116.257812 107.03125 113.191406 C 107.710938 111.652344 108.394531 110.113281 109.078125 108.574219 C 109.40625 107.824219 109.738281 107.074219 110.074219 106.328125 C 110.078125 106.316406 110.085938 106.300781 110.09375 106.289062 C 110.113281 106.296875 110.128906 106.304688 110.148438 106.3125 C 110.492188 106.453125 110.832031 106.59375 111.171875 106.734375 C 112.445312 107.257812 113.71875 107.785156 114.992188 108.3125 C 113.773438 111.226562 112.550781 114.144531 111.328125 117.058594 C 110.140625 119.890625 108.957031 122.71875 107.769531 125.550781 C 107.128906 126.207031 106.488281 126.863281 105.84375 127.519531 C 105.8125 127.492188 105.78125 127.46875 105.738281 127.449219 C 104.734375 126.988281 103.679688 126.695312 102.597656 126.523438 L 101.375 125.988281 C 101.410156 125.894531 101.441406 125.804688 101.476562 125.726562 Z M 113.988281 99.214844 C 114.167969 100.160156 114.902344 100.957031 115.816406 101.238281 C 116.394531 101.417969 117.035156 101.394531 117.597656 101.160156 C 118.121094 100.941406 118.550781 100.542969 118.925781 100.121094 C 119.761719 99.195312 120.292969 98.085938 120.75 96.941406 C 120.800781 97.078125 120.859375 97.210938 120.898438 97.34375 C 120.992188 97.644531 121.074219 97.945312 121.140625 98.25 C 121.210938 98.585938 121.269531 98.929688 121.300781 99.273438 C 121.324219 99.519531 121.308594 99.777344 121.34375 100.019531 C 121.300781 100.308594 121.328125 100.617188 121.296875 100.910156 C 121.257812 101.242188 121.195312 101.566406 121.113281 101.886719 C 120.945312 102.480469 120.710938 103.046875 120.410156 103.582031 C 120.046875 104.191406 119.609375 104.734375 119.117188 105.246094 C 118.753906 105.597656 118.378906 105.929688 117.972656 106.226562 C 117.644531 106.472656 117.296875 106.679688 116.957031 106.902344 C 116.660156 107.074219 116.355469 107.238281 116.042969 107.386719 C 115.890625 107.460938 115.738281 107.527344 115.582031 107.589844 C 115.574219 107.589844 115.570312 107.585938 115.5625 107.582031 C 115.199219 107.433594 114.835938 107.285156 114.472656 107.132812 C 113.023438 106.535156 111.578125 105.9375 110.128906 105.339844 C 109.324219 104.425781 108.777344 103.339844 108.5625 102.136719 C 108.34375 100.90625 108.460938 99.652344 108.761719 98.449219 C 109.199219 96.957031 110.023438 95.484375 111.378906 94.652344 C 111.648438 94.488281 111.933594 94.386719 112.226562 94.285156 C 112.550781 94.210938 112.867188 94.15625 113.199219 94.148438 C 113.617188 94.167969 114.007812 94.222656 114.414062 94.3125 C 114.976562 94.476562 115.496094 94.707031 116.007812 94.988281 C 116.082031 95.035156 116.15625 95.085938 116.230469 95.132812 C 116.128906 95.195312 116.023438 95.261719 115.921875 95.328125 C 115.535156 95.578125 115.183594 95.871094 114.882812 96.226562 C 114.191406 97.03125 113.785156 98.152344 113.988281 99.214844 Z M 94.074219 118.679688 C 93.933594 117.71875 93.820312 116.828125 93.710938 115.8125 C 93.355469 112.523438 93.171875 109.210938 93.105469 105.90625 C 93.097656 105.441406 93.09375 104.980469 93.089844 104.515625 C 93.597656 104.539062 94.105469 104.558594 94.617188 104.578125 C 96.367188 104.652344 98.121094 104.726562 99.871094 104.796875 C 99.988281 104.800781 100.105469 104.808594 100.222656 104.8125 C 101.085938 104.824219 101.851562 104.199219 101.972656 103.335938 C 101.996094 103.1875 102 103.046875 102.003906 102.898438 C 102.015625 102.65625 102.027344 102.414062 102.035156 102.171875 C 102.65625 102.277344 103.277344 102.367188 103.898438 102.453125 C 105.207031 102.636719 106.519531 102.789062 107.835938 102.921875 C 107.972656 103.441406 108.164062 103.945312 108.414062 104.425781 C 108.664062 104.90625 108.972656 105.382812 109.335938 105.792969 C 108.03125 108.734375 106.730469 111.675781 105.425781 114.617188 C 104.074219 117.667969 102.722656 120.71875 101.371094 123.769531 C 101.058594 124.480469 100.691406 125.183594 100.421875 125.914062 C 100.421875 125.914062 100.421875 125.914062 100.421875 125.917969 C 100.300781 125.964844 100.183594 126.015625 100.066406 126.070312 C 99.90625 126.140625 99.75 126.222656 99.589844 126.300781 C 98.9375 126.300781 98.28125 126.320312 97.625 126.351562 C 97.035156 126.378906 96.46875 126.410156 95.925781 126.28125 C 95.894531 126.203125 95.863281 126.125 95.832031 126.046875 C 95.753906 125.847656 95.683594 125.640625 95.609375 125.4375 C 95.472656 125.042969 95.347656 124.644531 95.234375 124.242188 C 94.980469 123.359375 94.765625 122.464844 94.582031 121.5625 C 94.386719 120.609375 94.21875 119.644531 94.074219 118.679688 Z M 101.191406 91.785156 C 101.164062 91.75 101.246094 91.875 101.269531 91.917969 C 101.269531 91.921875 101.269531 91.925781 101.273438 91.933594 C 101.289062 91.980469 101.304688 92.027344 101.3125 92.078125 C 101.308594 92.074219 101.3125 92.179688 101.308594 92.199219 C 101.308594 92.210938 101.308594 92.222656 101.308594 92.238281 C 101.308594 92.289062 101.304688 92.34375 101.300781 92.398438 C 101.28125 92.945312 101.257812 93.492188 101.234375 94.039062 C 101.160156 95.886719 101.082031 97.738281 101.007812 99.585938 C 100.957031 100.761719 100.925781 101.941406 100.863281 103.113281 C 100.84375 103.4375 100.570312 103.679688 100.222656 103.675781 C 98.90625 103.621094 97.59375 103.566406 96.277344 103.511719 C 95.386719 103.472656 94.5 103.4375 93.609375 103.402344 C 93.335938 103.390625 93.058594 103.378906 92.78125 103.367188 C 92.710938 103.363281 92.640625 103.363281 92.570312 103.359375 C 92.464844 103.351562 92.464844 103.355469 92.355469 103.320312 C 92.105469 103.234375 91.96875 102.980469 91.980469 102.675781 C 91.984375 102.53125 91.992188 102.386719 91.996094 102.242188 C 92.023438 101.589844 92.050781 100.933594 92.078125 100.277344 C 92.152344 98.402344 92.230469 96.527344 92.308594 94.652344 C 92.339844 93.9375 92.367188 93.222656 92.398438 92.507812 C 92.40625 92.3125 92.414062 92.113281 92.421875 91.917969 C 92.421875 91.878906 92.425781 91.839844 92.425781 91.796875 C 92.425781 91.792969 92.425781 91.789062 92.425781 91.78125 C 92.433594 91.703125 92.425781 91.742188 92.453125 91.644531 C 92.460938 91.625 92.460938 91.617188 92.460938 91.613281 C 92.464844 91.613281 92.464844 91.609375 92.464844 91.605469 C 92.484375 91.5625 92.515625 91.511719 92.542969 91.472656 C 92.648438 91.324219 92.84375 91.234375 93.066406 91.238281 C 93.097656 91.238281 93.128906 91.238281 93.160156 91.242188 C 93.257812 91.246094 93.351562 91.25 93.445312 91.253906 C 93.566406 91.257812 93.6875 91.261719 93.808594 91.269531 C 94.640625 91.300781 95.472656 91.335938 96.304688 91.371094 C 97.777344 91.429688 99.25 91.480469 100.722656 91.554688 C 100.820312 91.558594 100.84375 91.558594 100.921875 91.585938 C 100.9375 91.589844 101.035156 91.640625 101.078125 91.671875 C 101.050781 91.652344 101.164062 91.75 101.191406 91.785156 Z M 90.699219 118.941406 C 90.738281 118.988281 90.710938 118.960938 90.699219 118.941406 Z M 90.265625 117.5 C 89.9375 115.28125 90.085938 113.058594 90.703125 110.921875 C 90.832031 110.476562 90.984375 110.039062 91.152344 109.605469 C 91.191406 109.503906 91.234375 109.398438 91.273438 109.296875 C 91.28125 109.285156 91.28125 109.277344 91.285156 109.269531 C 91.289062 109.265625 91.292969 109.257812 91.296875 109.246094 C 91.320312 109.195312 91.339844 109.140625 91.363281 109.089844 C 91.441406 108.910156 91.523438 108.734375 91.609375 108.558594 C 91.738281 108.292969 91.875 108.03125 92.019531 107.777344 C 92.042969 108.414062 92.070312 109.054688 92.101562 109.695312 C 92.296875 113.554688 92.636719 117.429688 93.363281 121.234375 C 93.628906 122.625 93.953125 124.011719 94.394531 125.355469 C 93.46875 124.476562 92.808594 123.261719 92.484375 122.0625 C 92.292969 121.355469 92.265625 120.644531 92.171875 119.921875 C 92.074219 119.171875 91.875 118.394531 91.253906 117.910156 C 90.960938 117.679688 90.621094 117.554688 90.265625 117.5 Z M 150.386719 118.65625 C 149.949219 120.496094 149.539062 122.34375 149.171875 124.199219 C 149.144531 124.210938 149.128906 124.21875 149.132812 124.21875 C 149.058594 124.25 148.984375 124.277344 148.910156 124.308594 C 148.242188 124.566406 147.550781 124.765625 146.851562 124.914062 C 146.574219 124.972656 146.292969 125.019531 146.015625 125.0625 C 145.921875 124.917969 145.8125 124.777344 145.6875 124.65625 C 145.011719 124.007812 144.140625 124.359375 143.335938 124.496094 C 142.617188 124.617188 141.886719 124.660156 141.15625 124.675781 C 138.121094 124.738281 135.035156 124.175781 132.035156 124.859375 C 131.664062 124.945312 131.300781 125.050781 130.941406 125.179688 C 131.0625 123.816406 130.757812 122.429688 130.058594 121.246094 C 130.320312 121.058594 130.578125 120.871094 130.839844 120.679688 C 131.691406 120.066406 132.402344 119.191406 132.375 118.082031 C 132.367188 117.835938 132.316406 117.613281 132.234375 117.402344 C 132.226562 117.339844 132.203125 117.289062 132.167969 117.246094 C 132.050781 116.996094 131.894531 116.765625 131.71875 116.523438 C 131.664062 116.445312 131.609375 116.367188 131.550781 116.292969 C 131.890625 116.046875 132.226562 115.800781 132.566406 115.558594 C 132.804688 115.539062 133.042969 115.527344 133.277344 115.523438 C 133.695312 115.515625 134.109375 115.546875 134.527344 115.542969 C 135.023438 115.539062 135.523438 115.480469 136.015625 115.378906 C 136.941406 115.1875 137.832031 114.835938 138.632812 114.328125 C 140.09375 113.40625 141.328125 111.988281 142.023438 110.402344 C 142.320312 109.730469 142.492188 109.03125 142.546875 108.332031 C 142.859375 108.105469 143.171875 107.878906 143.484375 107.652344 C 144.011719 107.269531 144.535156 106.886719 145.0625 106.507812 C 145.195312 107.308594 145.410156 108.097656 145.644531 108.867188 C 146.238281 110.800781 147.082031 112.703125 148.285156 114.335938 C 149.007812 115.316406 149.84375 116.1875 150.8125 116.910156 C 150.667969 117.492188 150.527344 118.074219 150.386719 118.65625 Z M 154.675781 116.417969 C 154.671875 116.449219 154.667969 116.480469 154.664062 116.511719 C 154.652344 116.597656 154.636719 116.679688 154.625 116.765625 C 154.535156 117.3125 154.417969 117.855469 154.261719 118.390625 C 154.183594 118.660156 154.09375 118.925781 153.996094 119.1875 C 153.953125 119.304688 153.90625 119.421875 153.859375 119.539062 C 153.847656 119.566406 153.820312 119.625 153.808594 119.648438 C 153.78125 119.71875 153.75 119.789062 153.714844 119.855469 C 153.480469 120.359375 153.203125 120.839844 152.882812 121.292969 C 152.84375 121.34375 152.808594 121.394531 152.769531 121.449219 C 152.757812 121.460938 152.707031 121.527344 152.6875 121.554688 C 152.605469 121.65625 152.527344 121.757812 152.441406 121.855469 C 152.257812 122.0625 152.066406 122.265625 151.867188 122.457031 C 151.664062 122.648438 151.453125 122.828125 151.238281 123 C 151.210938 123.019531 151.128906 123.085938 151.109375 123.097656 C 151.050781 123.144531 150.988281 123.1875 150.925781 123.230469 C 150.800781 123.316406 150.675781 123.402344 150.546875 123.480469 C 150.519531 123.5 150.492188 123.515625 150.464844 123.53125 C 151.0625 120.617188 151.761719 117.726562 152.503906 114.847656 C 153.042969 112.757812 153.609375 110.671875 154.203125 108.597656 C 154.300781 109.066406 154.390625 109.542969 154.46875 110.015625 C 154.515625 110.296875 154.554688 110.578125 154.59375 110.859375 C 154.597656 110.894531 154.605469 110.949219 154.609375 110.972656 C 154.617188 111.039062 154.625 111.105469 154.632812 111.171875 C 154.652344 111.324219 154.667969 111.476562 154.683594 111.632812 C 154.804688 112.800781 154.851562 113.976562 154.789062 115.148438 C 154.773438 115.4375 154.753906 115.730469 154.722656 116.019531 C 154.707031 116.148438 154.691406 116.28125 154.675781 116.410156 C 154.675781 116.417969 154.675781 116.429688 154.671875 116.441406 C 154.675781 116.433594 154.675781 116.425781 154.675781 116.417969 Z M 147.050781 64.308594 C 147.449219 64.425781 147.855469 64.507812 148.273438 64.5625 C 148.261719 64.558594 148.265625 64.5625 148.296875 64.566406 C 148.332031 64.570312 148.367188 64.574219 148.402344 64.582031 C 148.484375 64.59375 148.570312 64.605469 148.652344 64.617188 C 150.371094 64.886719 152.070312 65.316406 153.722656 65.890625 C 153.675781 65.945312 153.628906 65.996094 153.582031 66.050781 C 152.859375 66.882812 152.207031 67.777344 151.59375 68.695312 C 150.617188 70.164062 149.753906 71.707031 148.972656 73.289062 C 147.851562 75.558594 146.894531 77.90625 146.066406 80.296875 C 144.984375 83.417969 144.113281 86.613281 143.410156 89.839844 C 143.3125 90.28125 143.21875 90.726562 143.128906 91.167969 C 143.050781 91.164062 142.976562 91.160156 142.898438 91.15625 C 142.113281 91.125 141.324219 91.09375 140.535156 91.058594 C 139.261719 91.007812 137.988281 90.953125 136.714844 90.902344 C 137.136719 88.363281 137.753906 85.863281 138.507812 83.402344 C 139.273438 80.914062 140.171875 78.46875 141.171875 76.066406 C 142.023438 74.019531 142.957031 71.996094 143.949219 70.007812 C 144.667969 68.570312 145.414062 67.152344 146.203125 65.753906 C 146.476562 65.265625 146.769531 64.792969 147.050781 64.308594 Z M 173.132812 98.566406 C 172.6875 94.53125 172.113281 90.507812 171.394531 86.511719 C 170.890625 83.710938 170.367188 80.910156 169.25 78.277344 C 167.410156 73.933594 164.238281 70.332031 160.285156 67.796875 C 157.425781 65.960938 154.203125 64.667969 150.898438 63.902344 C 150.015625 63.695312 149.128906 63.546875 148.234375 63.421875 C 146.070312 63.109375 144.097656 61.71875 142.855469 59.953125 C 140.921875 57.203125 140.292969 53.628906 140.335938 50.324219 C 140.335938 50.167969 140.34375 50.011719 140.347656 49.859375 C 141.179688 48.617188 141.835938 47.261719 142.296875 45.839844 C 142.675781 44.664062 142.976562 43.460938 143.230469 42.25 C 144.386719 42.378906 145.464844 41.980469 146.351562 41.230469 C 147.273438 40.453125 147.835938 39.332031 148.125 38.175781 C 148.425781 36.96875 148.542969 35.625 148.453125 34.382812 C 148.367188 33.1875 147.933594 31.949219 146.871094 31.28125 C 146.21875 30.878906 145.242188 30.785156 144.460938 31.070312 C 144.464844 30.988281 144.464844 30.902344 144.46875 30.816406 C 144.480469 30.082031 144.480469 29.34375 144.472656 28.609375 C 144.628906 28.457031 144.777344 28.296875 144.914062 28.128906 C 145.457031 27.464844 145.832031 26.726562 146.097656 25.917969 C 147.972656 23.023438 148.59375 19.449219 147.878906 16.085938 C 147.25 13.121094 145.574219 10.398438 143.277344 8.441406 C 140.742188 6.285156 137.53125 5.171875 134.3125 4.511719 C 133.640625 4.371094 132.960938 4.253906 132.28125 4.15625 C 131.710938 2.851562 130.410156 1.957031 129.011719 1.792969 C 127.550781 1.621094 126.085938 2.339844 125.257812 3.535156 C 125.21875 3.589844 125.199219 3.652344 125.1875 3.714844 C 123.730469 3.738281 122.265625 3.8125 120.820312 4 C 120.789062 4.003906 120.753906 4.007812 120.722656 4.011719 C 120.695312 4.035156 120.453125 4.039062 120.421875 4.042969 C 120.054688 4.089844 119.6875 4.140625 119.324219 4.207031 C 118.722656 4.316406 118.128906 4.460938 117.546875 4.644531 C 116.480469 4.980469 115.441406 5.449219 114.503906 6.070312 C 112.878906 7.144531 111.570312 8.644531 110.691406 10.382812 C 109.894531 11.953125 109.421875 13.664062 109.1875 15.402344 C 108.988281 16.875 108.9375 18.359375 109.023438 19.84375 C 109.066406 20.601562 109.144531 21.359375 109.269531 22.109375 C 109.183594 22.234375 109.097656 22.363281 109.019531 22.492188 C 108.644531 23.109375 108.335938 23.773438 108.105469 24.460938 C 107.8125 25.339844 107.652344 26.292969 107.734375 27.21875 C 107.816406 28.144531 108.289062 28.972656 109.121094 29.417969 C 109.515625 29.632812 109.960938 29.753906 110.410156 29.761719 C 110.386719 30.191406 110.375 30.621094 110.367188 31.054688 C 109.769531 30.863281 109.078125 30.871094 108.550781 31.058594 C 107.410156 31.464844 106.730469 32.605469 106.519531 33.753906 C 106.289062 35.019531 106.347656 36.386719 106.539062 37.65625 C 106.726562 38.859375 107.171875 40.039062 108.007812 40.949219 C 108.804688 41.816406 109.964844 42.421875 111.160156 42.359375 C 111.484375 44.238281 111.953125 46.101562 112.710938 47.832031 C 113.605469 49.882812 114.96875 51.699219 116.65625 53.15625 C 116.65625 53.207031 116.65625 53.253906 116.652344 53.300781 C 116.652344 53.457031 116.640625 53.613281 116.628906 53.765625 C 116.621094 53.855469 116.609375 53.949219 116.601562 54.039062 C 116.597656 54.050781 116.597656 54.058594 116.597656 54.066406 C 116.597656 54.066406 116.597656 54.070312 116.597656 54.078125 C 116.585938 54.136719 116.578125 54.199219 116.566406 54.257812 C 116.367188 55.460938 115.996094 56.417969 115.347656 57.410156 C 113.210938 60.675781 109.0625 61.710938 105.355469 62.007812 C 102.101562 62.265625 98.847656 62.90625 95.757812 63.960938 C 91.515625 65.410156 87.285156 67.78125 84.777344 71.625 C 84.183594 72.535156 83.667969 73.503906 83.140625 74.453125 C 81.800781 76.863281 80.53125 79.3125 79.328125 81.792969 C 77.65625 85.234375 76.109375 88.738281 74.722656 92.308594 C 73.1875 96.257812 71.847656 100.289062 70.839844 104.40625 C 69.851562 108.445312 69.164062 112.59375 69.109375 116.757812 C 69.054688 120.519531 69.53125 124.355469 70.992188 127.847656 C 71.328125 128.65625 71.714844 129.441406 72.152344 130.199219 C 72.148438 130.207031 72.144531 130.214844 72.140625 130.226562 C 71.789062 131.164062 72.1875 132.03125 72.75 132.78125 C 73.835938 134.226562 75.136719 135.488281 76.621094 136.523438 C 79.210938 138.328125 82.53125 139.351562 84.464844 141.980469 C 85.511719 143.40625 86.152344 145.070312 87.117188 146.546875 C 88.035156 147.949219 89.261719 149.21875 90.910156 149.699219 C 91.820312 149.964844 92.789062 149.992188 93.722656 149.925781 C 94.65625 149.863281 95.589844 149.707031 96.492188 149.457031 C 98.304688 148.953125 99.964844 148.074219 101.457031 146.933594 C 103.023438 145.742188 104.472656 144.398438 105.949219 143.101562 C 106.328125 142.769531 106.71875 142.425781 106.976562 142.015625 C 107.292969 141.753906 107.859375 141.289062 107.875 141.269531 C 108.640625 140.417969 109.394531 139.5625 110.152344 138.703125 C 110.835938 138.011719 111.507812 137.328125 112.097656 136.683594 C 112.316406 136.863281 112.539062 137.03125 112.765625 137.199219 C 114.046875 138.148438 115.367188 139.109375 116.878906 139.65625 C 118.355469 140.195312 119.949219 140.3125 121.507812 140.347656 C 123.058594 140.382812 124.625 140.324219 126.164062 140.535156 C 127.671875 140.746094 129.070312 141.300781 130.429688 141.964844 C 131.839844 142.65625 133.222656 143.417969 134.710938 143.949219 C 136.265625 144.503906 137.917969 144.8125 139.570312 144.875 C 140.378906 144.90625 141.191406 144.875 141.992188 144.78125 C 142.808594 144.6875 143.597656 144.554688 144.0625 143.796875 C 144.195312 143.578125 144.289062 143.339844 144.367188 143.085938 C 150.289062 143.835938 156.476562 143.992188 162.285156 142.4375 C 163.988281 141.984375 165.664062 141.367188 167.21875 140.53125 C 168.507812 139.839844 169.609375 138.886719 170.453125 137.6875 C 171.351562 136.410156 171.78125 134.945312 172.15625 133.449219 C 173.601562 127.691406 174.054688 121.691406 174.097656 115.769531 C 174.140625 110.023438 173.765625 104.277344 173.132812 98.566406 " fill-opacity="1" fill-rule="nonzero"/></g><path fill="#330b24" d="M 151.824219 100.910156 C 151.816406 100.886719 151.804688 100.867188 151.796875 100.84375 C 151.800781 100.851562 151.808594 100.875 151.828125 100.917969 C 151.828125 100.914062 151.824219 100.910156 151.824219 100.910156 " fill-opacity="1" fill-rule="nonzero"/><path fill="#330b24" d="M 154.671875 116.441406 C 154.660156 116.535156 154.667969 116.484375 154.671875 116.441406 " fill-opacity="1" fill-rule="nonzero"/><path fill="#330b24" d="M 120.644531 4.023438 C 120.667969 4.019531 120.695312 4.015625 120.722656 4.011719 C 120.722656 4.011719 120.726562 4.007812 120.726562 4.007812 C 120.726562 4.007812 120.625 4.023438 120.644531 4.023438 " fill-opacity="1" fill-rule="nonzero"/><path fill="#330b24" d="M 125.492188 41.824219 C 126.308594 42.308594 127.316406 42.371094 128.226562 42.148438 C 128.558594 42.066406 128.746094 41.683594 128.648438 41.375 C 128.550781 41.042969 128.195312 40.875 127.863281 40.957031 C 127.097656 41.148438 126.238281 40.996094 125.71875 40.417969 C 125.328125 39.980469 125.214844 39.382812 125.457031 38.851562 C 125.796875 38.113281 126.457031 37.554688 126.898438 36.878906 C 127.828125 35.453125 128.121094 33.714844 127.820312 32.058594 C 127.761719 31.726562 127.332031 31.554688 127.035156 31.644531 C 126.683594 31.746094 126.550781 32.085938 126.613281 32.417969 C 126.777344 33.335938 126.667969 34.292969 126.355469 35.167969 C 126.074219 35.964844 125.566406 36.589844 125.039062 37.242188 C 124.457031 37.960938 123.949219 38.785156 124.085938 39.742188 C 124.210938 40.609375 124.730469 41.371094 125.492188 41.824219 " fill-opacity="1" fill-rule="nonzero"/><path fill="#330b24" d="M 134.367188 34.960938 C 135.0625 34.925781 135.578125 34.015625 135.519531 32.929688 C 135.460938 31.847656 134.847656 30.996094 134.152344 31.035156 C 133.457031 31.070312 132.941406 31.980469 133 33.0625 C 133.058594 34.148438 133.671875 34.996094 134.367188 34.960938 " fill-opacity="1" fill-rule="nonzero"/><path fill="#330b24" d="M 120.542969 34.855469 C 121.238281 34.820312 121.753906 33.910156 121.695312 32.824219 C 121.636719 31.742188 121.023438 30.890625 120.328125 30.929688 C 119.632812 30.964844 119.117188 31.875 119.175781 32.957031 C 119.234375 34.042969 119.847656 34.890625 120.542969 34.855469 " fill-opacity="1" fill-rule="nonzero"/><path fill="#330b24" d="M 121.425781 44.992188 C 121.257812 45.28125 121.382812 45.585938 121.628906 45.769531 C 123.972656 47.519531 127.121094 48.019531 129.890625 47.085938 C 130.683594 46.816406 131.441406 46.445312 132.132812 45.96875 C 132.386719 45.796875 132.5 45.46875 132.339844 45.191406 C 132.191406 44.941406 131.816406 44.8125 131.5625 44.988281 C 130.164062 45.945312 128.503906 46.460938 126.808594 46.417969 C 125.144531 46.375 123.535156 45.78125 122.203125 44.789062 C 121.957031 44.605469 121.570312 44.746094 121.425781 44.992188 " fill-opacity="1" fill-rule="nonzero"/></svg>